<?xml version="1.0" encoding="UTF-8" standalone="no"?>
<!DOCTYPE svg PUBLIC "-//W3C//DTD SVG 1.1//EN"
 "http://www.w3.org/Graphics/SVG/1.1/DTD/svg11.dtd">
<!-- Generated by graphviz version 2.28.0 (20110507.0327)
 -->
<!-- Title: G Pages: 1 -->
<svg width="434pt" height="884pt"
 viewBox="0.00 0.00 434.00 884.00" xmlns="http://www.w3.org/2000/svg" xmlns:xlink="http://www.w3.org/1999/xlink">
<g id="graph1" class="graph" transform="scale(1 1) rotate(0) translate(4 880)">
<title>G</title>
<polygon fill="white" stroke="white" points="-4,5 -4,-880 431,-880 431,5 -4,5"/>
<!-- nodo4 -->
<g id="node1" class="node"><title>nodo4</title>
<ellipse fill="none" stroke="black" cx="159" cy="-785" rx="76.0518" ry="90.5193"/>
<text text-anchor="middle" x="159" y="-833.8" font-family="Times New Roman,serif" font-size="14.00">ID: 4 </text>
<text text-anchor="middle" x="159" y="-818.8" font-family="Times New Roman,serif" font-size="14.00">Tipo: infanteria &#160;</text>
<text text-anchor="middle" x="159" y="-803.8" font-family="Times New Roman,serif" font-size="14.00">PosX: 1 </text>
<text text-anchor="middle" x="159" y="-788.8" font-family="Times New Roman,serif" font-size="14.00">PosY: 14</text>
<text text-anchor="middle" x="159" y="-773.8" font-family="Times New Roman,serif" font-size="14.00">Vida: 50.0</text>
<text text-anchor="middle" x="159" y="-758.8" font-family="Times New Roman,serif" font-size="14.00">Ataque: 30</text>
<text text-anchor="middle" x="159" y="-743.8" font-family="Times New Roman,serif" font-size="14.00">Moviento: 3</text>
<text text-anchor="middle" x="159" y="-728.8" font-family="Times New Roman,serif" font-size="14.00">A. Ataque:1</text>
</g>
<!-- nodo1 -->
<g id="node2" class="node"><title>nodo1</title>
<ellipse fill="none" stroke="black" cx="78" cy="-567" rx="67.2629" ry="90.5193"/>
<text text-anchor="middle" x="78" y="-615.8" font-family="Times New Roman,serif" font-size="14.00">ID: 1 </text>
<text text-anchor="middle" x="78" y="-600.8" font-family="Times New Roman,serif" font-size="14.00">Tipo: tanque &#160;</text>
<text text-anchor="middle" x="78" y="-585.8" font-family="Times New Roman,serif" font-size="14.00">PosX: 1 </text>
<text text-anchor="middle" x="78" y="-570.8" font-family="Times New Roman,serif" font-size="14.00">PosY: 15</text>
<text text-anchor="middle" x="78" y="-555.8" font-family="Times New Roman,serif" font-size="14.00">Vida: 150.0</text>
<text text-anchor="middle" x="78" y="-540.8" font-family="Times New Roman,serif" font-size="14.00">Ataque: 80</text>
<text text-anchor="middle" x="78" y="-525.8" font-family="Times New Roman,serif" font-size="14.00">Moviento: 4</text>
<text text-anchor="middle" x="78" y="-510.8" font-family="Times New Roman,serif" font-size="14.00">A. Ataque:2</text>
</g>
<!-- nodo4&#45;&gt;nodo1 -->
<g id="edge2" class="edge"><title>nodo4&#45;&gt;nodo1</title>
<path fill="none" stroke="black" d="M128.262,-702.032C122.828,-687.542 117.146,-672.388 111.637,-657.7"/>
<polygon fill="black" stroke="black" points="114.836,-656.26 108.047,-648.126 108.281,-658.718 114.836,-656.26"/>
</g>
<!-- nodo5 -->
<g id="node7" class="node"><title>nodo5</title>
<ellipse fill="none" stroke="black" cx="240" cy="-567" rx="76.0518" ry="90.5193"/>
<text text-anchor="middle" x="240" y="-615.8" font-family="Times New Roman,serif" font-size="14.00">ID: 5 </text>
<text text-anchor="middle" x="240" y="-600.8" font-family="Times New Roman,serif" font-size="14.00">Tipo: infanteria &#160;</text>
<text text-anchor="middle" x="240" y="-585.8" font-family="Times New Roman,serif" font-size="14.00">PosX: 2 </text>
<text text-anchor="middle" x="240" y="-570.8" font-family="Times New Roman,serif" font-size="14.00">PosY: 14</text>
<text text-anchor="middle" x="240" y="-555.8" font-family="Times New Roman,serif" font-size="14.00">Vida: 50.0</text>
<text text-anchor="middle" x="240" y="-540.8" font-family="Times New Roman,serif" font-size="14.00">Ataque: 30</text>
<text text-anchor="middle" x="240" y="-525.8" font-family="Times New Roman,serif" font-size="14.00">Moviento: 3</text>
<text text-anchor="middle" x="240" y="-510.8" font-family="Times New Roman,serif" font-size="14.00">A. Ataque:1</text>
</g>
<!-- nodo4&#45;&gt;nodo5 -->
<g id="edge4" class="edge"><title>nodo4&#45;&gt;nodo5</title>
<path fill="none" stroke="black" d="M189.738,-702.032C194.938,-688.165 200.366,-673.69 205.651,-659.596"/>
<polygon fill="black" stroke="black" points="209.049,-660.505 209.283,-649.912 202.494,-658.047 209.049,-660.505"/>
</g>
<!-- null0 -->
<g id="node3" class="node"><title>null0</title>
<ellipse fill="black" stroke="black" cx="1" cy="-349" rx="1.8" ry="1.8"/>
</g>
<!-- nodo1&#45;&gt;null0 -->
<g id="edge6" class="edge"><title>nodo1&#45;&gt;null0</title>
<path fill="none" stroke="black" d="M35.8121,-496.3C26.6346,-478.481 17.9138,-458.979 12,-440 3.40903,-412.43 1.48198,-378.156 1.07971,-360.944"/>
<polygon fill="black" stroke="black" points="4.57938,-360.88 0.988563,-350.913 -2.42034,-360.944 4.57938,-360.88"/>
</g>
<!-- nodo3 -->
<g id="node4" class="node"><title>nodo3</title>
<ellipse fill="none" stroke="black" cx="95" cy="-349" rx="74.3697" ry="90.5193"/>
<text text-anchor="middle" x="95" y="-397.8" font-family="Times New Roman,serif" font-size="14.00">ID: 3 </text>
<text text-anchor="middle" x="95" y="-382.8" font-family="Times New Roman,serif" font-size="14.00">Tipo: mtanque &#160;</text>
<text text-anchor="middle" x="95" y="-367.8" font-family="Times New Roman,serif" font-size="14.00">PosX: 4 </text>
<text text-anchor="middle" x="95" y="-352.8" font-family="Times New Roman,serif" font-size="14.00">PosY: 15</text>
<text text-anchor="middle" x="95" y="-337.8" font-family="Times New Roman,serif" font-size="14.00">Vida: 200.0</text>
<text text-anchor="middle" x="95" y="-322.8" font-family="Times New Roman,serif" font-size="14.00">Ataque: 100</text>
<text text-anchor="middle" x="95" y="-307.8" font-family="Times New Roman,serif" font-size="14.00">Moviento: 3</text>
<text text-anchor="middle" x="95" y="-292.8" font-family="Times New Roman,serif" font-size="14.00">A. Ataque:2</text>
</g>
<!-- nodo1&#45;&gt;nodo3 -->
<g id="edge8" class="edge"><title>nodo1&#45;&gt;nodo3</title>
<path fill="none" stroke="black" d="M85.0127,-476.897C85.7314,-467.766 86.4647,-458.448 87.1913,-449.217"/>
<polygon fill="black" stroke="black" points="90.6805,-449.49 87.976,-439.246 83.7021,-448.941 90.6805,-449.49"/>
</g>
<!-- null1 -->
<g id="node5" class="node"><title>null1</title>
<ellipse fill="black" stroke="black" cx="84" cy="-131" rx="1.8" ry="1.8"/>
</g>
<!-- nodo3&#45;&gt;null1 -->
<g id="edge10" class="edge"><title>nodo3&#45;&gt;null1</title>
<path fill="none" stroke="black" d="M90.4465,-258.585C88.1606,-213.699 85.6498,-164.397 84.5582,-142.961"/>
<polygon fill="black" stroke="black" points="88.0536,-142.779 84.0494,-132.97 81.0626,-143.135 88.0536,-142.779"/>
</g>
<!-- null2 -->
<g id="node6" class="node"><title>null2</title>
<ellipse fill="black" stroke="black" cx="106" cy="-131" rx="1.8" ry="1.8"/>
</g>
<!-- nodo3&#45;&gt;null2 -->
<g id="edge12" class="edge"><title>nodo3&#45;&gt;null2</title>
<path fill="none" stroke="black" d="M99.5535,-258.585C101.839,-213.699 104.35,-164.397 105.442,-142.961"/>
<polygon fill="black" stroke="black" points="108.937,-143.135 105.951,-132.97 101.946,-142.779 108.937,-143.135"/>
</g>
<!-- null3 -->
<g id="node8" class="node"><title>null3</title>
<ellipse fill="black" stroke="black" cx="223" cy="-349" rx="1.8" ry="1.8"/>
</g>
<!-- nodo5&#45;&gt;null3 -->
<g id="edge14" class="edge"><title>nodo5&#45;&gt;null3</title>
<path fill="none" stroke="black" d="M232.963,-476.585C229.43,-431.699 225.55,-382.397 223.863,-360.961"/>
<polygon fill="black" stroke="black" points="227.35,-360.665 223.076,-350.97 220.372,-361.214 227.35,-360.665"/>
</g>
<!-- nodo6 -->
<g id="node9" class="node"><title>nodo6</title>
<ellipse fill="none" stroke="black" cx="310" cy="-349" rx="67.2629" ry="90.5193"/>
<text text-anchor="middle" x="310" y="-397.8" font-family="Times New Roman,serif" font-size="14.00">ID: 6 </text>
<text text-anchor="middle" x="310" y="-382.8" font-family="Times New Roman,serif" font-size="14.00">Tipo: tanque &#160;</text>
<text text-anchor="middle" x="310" y="-367.8" font-family="Times New Roman,serif" font-size="14.00">PosX: 2 </text>
<text text-anchor="middle" x="310" y="-352.8" font-family="Times New Roman,serif" font-size="14.00">PosY: 15</text>
<text text-anchor="middle" x="310" y="-337.8" font-family="Times New Roman,serif" font-size="14.00">Vida: 150.0</text>
<text text-anchor="middle" x="310" y="-322.8" font-family="Times New Roman,serif" font-size="14.00">Ataque: 80</text>
<text text-anchor="middle" x="310" y="-307.8" font-family="Times New Roman,serif" font-size="14.00">Moviento: 4</text>
<text text-anchor="middle" x="310" y="-292.8" font-family="Times New Roman,serif" font-size="14.00">A. Ataque:2</text>
</g>
<!-- nodo5&#45;&gt;nodo6 -->
<g id="edge16" class="edge"><title>nodo5&#45;&gt;nodo6</title>
<path fill="none" stroke="black" d="M267.164,-482.18C271.432,-469.011 275.863,-455.337 280.187,-441.996"/>
<polygon fill="black" stroke="black" points="283.558,-442.944 283.312,-432.352 276.899,-440.786 283.558,-442.944"/>
</g>
<!-- null4 -->
<g id="node10" class="node"><title>null4</title>
<ellipse fill="black" stroke="black" cx="264" cy="-131" rx="1.8" ry="1.8"/>
</g>
<!-- nodo6&#45;&gt;null4 -->
<g id="edge18" class="edge"><title>nodo6&#45;&gt;null4</title>
<path fill="none" stroke="black" d="M284.983,-264.717C281.27,-250.549 277.767,-235.917 275,-222 269.396,-193.819 266.191,-160.07 264.813,-143.02"/>
<polygon fill="black" stroke="black" points="268.292,-142.607 264.058,-132.895 261.312,-143.128 268.292,-142.607"/>
</g>
<!-- nodo10 -->
<g id="node11" class="node"><title>nodo10</title>
<ellipse fill="none" stroke="black" cx="355" cy="-131" rx="71.127" ry="90.5193"/>
<text text-anchor="middle" x="355" y="-179.8" font-family="Times New Roman,serif" font-size="14.00">ID: 10 </text>
<text text-anchor="middle" x="355" y="-164.8" font-family="Times New Roman,serif" font-size="14.00">Tipo: artilleria &#160;</text>
<text text-anchor="middle" x="355" y="-149.8" font-family="Times New Roman,serif" font-size="14.00">PosX: 3 </text>
<text text-anchor="middle" x="355" y="-134.8" font-family="Times New Roman,serif" font-size="14.00">PosY: 15</text>
<text text-anchor="middle" x="355" y="-119.8" font-family="Times New Roman,serif" font-size="14.00">Vida: 50.0</text>
<text text-anchor="middle" x="355" y="-104.8" font-family="Times New Roman,serif" font-size="14.00">Ataque: 150</text>
<text text-anchor="middle" x="355" y="-89.8" font-family="Times New Roman,serif" font-size="14.00">Moviento: 3</text>
<text text-anchor="middle" x="355" y="-74.8" font-family="Times New Roman,serif" font-size="14.00">A. Ataque:6</text>
</g>
<!-- nodo6&#45;&gt;nodo10 -->
<g id="edge20" class="edge"><title>nodo6&#45;&gt;nodo10</title>
<path fill="none" stroke="black" d="M327.979,-261.7C330.228,-250.904 332.54,-239.806 334.82,-228.862"/>
<polygon fill="black" stroke="black" points="338.289,-229.372 336.902,-218.868 331.436,-227.944 338.289,-229.372"/>
</g>
<!-- null5 -->
<g id="node12" class="node"><title>null5</title>
<ellipse fill="black" stroke="black" cx="344" cy="-2" rx="1.8" ry="1.8"/>
</g>
<!-- nodo10&#45;&gt;null5 -->
<g id="edge22" class="edge"><title>nodo10&#45;&gt;null5</title>
<path fill="none" stroke="black" d="M347.271,-40.7603C346.359,-30.2378 345.546,-20.8504 344.959,-14.0675"/>
<polygon fill="black" stroke="black" points="348.432,-13.611 344.082,-3.95036 341.458,-14.2151 348.432,-13.611"/>
</g>
<!-- null6 -->
<g id="node13" class="node"><title>null6</title>
<ellipse fill="black" stroke="black" cx="366" cy="-2" rx="1.8" ry="1.8"/>
</g>
<!-- nodo10&#45;&gt;null6 -->
<g id="edge24" class="edge"><title>nodo10&#45;&gt;null6</title>
<path fill="none" stroke="black" d="M362.729,-40.7603C363.641,-30.2378 364.454,-20.8504 365.041,-14.0675"/>
<polygon fill="black" stroke="black" points="368.542,-14.2151 365.918,-3.95036 361.568,-13.611 368.542,-14.2151"/>
</g>
</g>
</svg>
