<?xml version="1.0" encoding="UTF-8" standalone="no"?>
<!DOCTYPE svg PUBLIC "-//W3C//DTD SVG 1.1//EN"
 "http://www.w3.org/Graphics/SVG/1.1/DTD/svg11.dtd">
<!-- Generated by graphviz version 2.28.0 (20110507.0327)
 -->
<!-- Title: G Pages: 1 -->
<svg width="320pt" height="844pt"
 viewBox="0.00 0.00 320.00 844.00" xmlns="http://www.w3.org/2000/svg" xmlns:xlink="http://www.w3.org/1999/xlink">
<g id="graph1" class="graph" transform="scale(1 1) rotate(0) translate(4 840)">
<title>G</title>
<polygon fill="white" stroke="white" points="-4,5 -4,-840 317,-840 317,5 -4,5"/>
<!-- nodo4 -->
<g id="node1" class="node"><title>nodo4</title>
<ellipse fill="none" stroke="black" cx="155" cy="-745" rx="76.0518" ry="90.5193"/>
<text text-anchor="middle" x="155" y="-793.8" font-family="Times New Roman,serif" font-size="14.00">ID: 4 </text>
<text text-anchor="middle" x="155" y="-778.8" font-family="Times New Roman,serif" font-size="14.00">Tipo: infanteria &#160;</text>
<text text-anchor="middle" x="155" y="-763.8" font-family="Times New Roman,serif" font-size="14.00">PosX: 1 </text>
<text text-anchor="middle" x="155" y="-748.8" font-family="Times New Roman,serif" font-size="14.00">PosY: 14</text>
<text text-anchor="middle" x="155" y="-733.8" font-family="Times New Roman,serif" font-size="14.00">Vida: 50</text>
<text text-anchor="middle" x="155" y="-718.8" font-family="Times New Roman,serif" font-size="14.00">Ataque: 30</text>
<text text-anchor="middle" x="155" y="-703.8" font-family="Times New Roman,serif" font-size="14.00">Moviento: 2</text>
<text text-anchor="middle" x="155" y="-688.8" font-family="Times New Roman,serif" font-size="14.00">A. Ataque:1</text>
</g>
<!-- nodo1 -->
<g id="node2" class="node"><title>nodo1</title>
<ellipse fill="none" stroke="black" cx="74" cy="-527" rx="67.2629" ry="90.5193"/>
<text text-anchor="middle" x="74" y="-575.8" font-family="Times New Roman,serif" font-size="14.00">ID: 1 </text>
<text text-anchor="middle" x="74" y="-560.8" font-family="Times New Roman,serif" font-size="14.00">Tipo: tanque &#160;</text>
<text text-anchor="middle" x="74" y="-545.8" font-family="Times New Roman,serif" font-size="14.00">PosX: 1 </text>
<text text-anchor="middle" x="74" y="-530.8" font-family="Times New Roman,serif" font-size="14.00">PosY: 15</text>
<text text-anchor="middle" x="74" y="-515.8" font-family="Times New Roman,serif" font-size="14.00">Vida: 150</text>
<text text-anchor="middle" x="74" y="-500.8" font-family="Times New Roman,serif" font-size="14.00">Ataque: 80</text>
<text text-anchor="middle" x="74" y="-485.8" font-family="Times New Roman,serif" font-size="14.00">Moviento: 4</text>
<text text-anchor="middle" x="74" y="-470.8" font-family="Times New Roman,serif" font-size="14.00">A. Ataque:2</text>
</g>
<!-- nodo4&#45;&gt;nodo1 -->
<g id="edge2" class="edge"><title>nodo4&#45;&gt;nodo1</title>
<path fill="none" stroke="black" d="M124.262,-662.032C118.828,-647.542 113.146,-632.388 107.637,-617.7"/>
<polygon fill="black" stroke="black" points="110.836,-616.26 104.047,-608.126 104.281,-618.718 110.836,-616.26"/>
</g>
<!-- nodo5 -->
<g id="node4" class="node"><title>nodo5</title>
<ellipse fill="none" stroke="black" cx="236" cy="-527" rx="76.0518" ry="90.5193"/>
<text text-anchor="middle" x="236" y="-575.8" font-family="Times New Roman,serif" font-size="14.00">ID: 5 </text>
<text text-anchor="middle" x="236" y="-560.8" font-family="Times New Roman,serif" font-size="14.00">Tipo: infanteria &#160;</text>
<text text-anchor="middle" x="236" y="-545.8" font-family="Times New Roman,serif" font-size="14.00">PosX: 2 </text>
<text text-anchor="middle" x="236" y="-530.8" font-family="Times New Roman,serif" font-size="14.00">PosY: 14</text>
<text text-anchor="middle" x="236" y="-515.8" font-family="Times New Roman,serif" font-size="14.00">Vida: 50</text>
<text text-anchor="middle" x="236" y="-500.8" font-family="Times New Roman,serif" font-size="14.00">Ataque: 30</text>
<text text-anchor="middle" x="236" y="-485.8" font-family="Times New Roman,serif" font-size="14.00">Moviento: 2</text>
<text text-anchor="middle" x="236" y="-470.8" font-family="Times New Roman,serif" font-size="14.00">A. Ataque:1</text>
</g>
<!-- nodo4&#45;&gt;nodo5 -->
<g id="edge6" class="edge"><title>nodo4&#45;&gt;nodo5</title>
<path fill="none" stroke="black" d="M185.738,-662.032C190.938,-648.165 196.366,-633.69 201.651,-619.596"/>
<polygon fill="black" stroke="black" points="205.049,-620.505 205.283,-609.912 198.494,-618.047 205.049,-620.505"/>
</g>
<!-- nodo3 -->
<g id="node3" class="node"><title>nodo3</title>
<ellipse fill="none" stroke="black" cx="74" cy="-309" rx="74.3697" ry="90.5193"/>
<text text-anchor="middle" x="74" y="-357.8" font-family="Times New Roman,serif" font-size="14.00">ID: 3 </text>
<text text-anchor="middle" x="74" y="-342.8" font-family="Times New Roman,serif" font-size="14.00">Tipo: mtanque &#160;</text>
<text text-anchor="middle" x="74" y="-327.8" font-family="Times New Roman,serif" font-size="14.00">PosX: 4 </text>
<text text-anchor="middle" x="74" y="-312.8" font-family="Times New Roman,serif" font-size="14.00">PosY: 15</text>
<text text-anchor="middle" x="74" y="-297.8" font-family="Times New Roman,serif" font-size="14.00">Vida: 200</text>
<text text-anchor="middle" x="74" y="-282.8" font-family="Times New Roman,serif" font-size="14.00">Ataque: 100</text>
<text text-anchor="middle" x="74" y="-267.8" font-family="Times New Roman,serif" font-size="14.00">Moviento: 3</text>
<text text-anchor="middle" x="74" y="-252.8" font-family="Times New Roman,serif" font-size="14.00">A. Ataque:2</text>
</g>
<!-- nodo1&#45;&gt;nodo3 -->
<g id="edge4" class="edge"><title>nodo1&#45;&gt;nodo3</title>
<path fill="none" stroke="black" d="M74,-436.273C74,-427.609 74,-418.783 74,-410.027"/>
<polygon fill="black" stroke="black" points="77.5001,-409.795 74,-399.795 70.5001,-409.795 77.5001,-409.795"/>
</g>
<!-- nodo6 -->
<g id="node5" class="node"><title>nodo6</title>
<ellipse fill="none" stroke="black" cx="236" cy="-309" rx="67.2629" ry="90.5193"/>
<text text-anchor="middle" x="236" y="-357.8" font-family="Times New Roman,serif" font-size="14.00">ID: 6 </text>
<text text-anchor="middle" x="236" y="-342.8" font-family="Times New Roman,serif" font-size="14.00">Tipo: tanque &#160;</text>
<text text-anchor="middle" x="236" y="-327.8" font-family="Times New Roman,serif" font-size="14.00">PosX: 2 </text>
<text text-anchor="middle" x="236" y="-312.8" font-family="Times New Roman,serif" font-size="14.00">PosY: 15</text>
<text text-anchor="middle" x="236" y="-297.8" font-family="Times New Roman,serif" font-size="14.00">Vida: 150</text>
<text text-anchor="middle" x="236" y="-282.8" font-family="Times New Roman,serif" font-size="14.00">Ataque: 80</text>
<text text-anchor="middle" x="236" y="-267.8" font-family="Times New Roman,serif" font-size="14.00">Moviento: 4</text>
<text text-anchor="middle" x="236" y="-252.8" font-family="Times New Roman,serif" font-size="14.00">A. Ataque:2</text>
</g>
<!-- nodo5&#45;&gt;nodo6 -->
<g id="edge8" class="edge"><title>nodo5&#45;&gt;nodo6</title>
<path fill="none" stroke="black" d="M236,-436.273C236,-427.609 236,-418.783 236,-410.027"/>
<polygon fill="black" stroke="black" points="239.5,-409.795 236,-399.795 232.5,-409.795 239.5,-409.795"/>
</g>
<!-- nodo10 -->
<g id="node6" class="node"><title>nodo10</title>
<ellipse fill="none" stroke="black" cx="236" cy="-91" rx="71.127" ry="90.5193"/>
<text text-anchor="middle" x="236" y="-139.8" font-family="Times New Roman,serif" font-size="14.00">ID: 10 </text>
<text text-anchor="middle" x="236" y="-124.8" font-family="Times New Roman,serif" font-size="14.00">Tipo: artilleria &#160;</text>
<text text-anchor="middle" x="236" y="-109.8" font-family="Times New Roman,serif" font-size="14.00">PosX: 3 </text>
<text text-anchor="middle" x="236" y="-94.8" font-family="Times New Roman,serif" font-size="14.00">PosY: 15</text>
<text text-anchor="middle" x="236" y="-79.8" font-family="Times New Roman,serif" font-size="14.00">Vida: 50</text>
<text text-anchor="middle" x="236" y="-64.8" font-family="Times New Roman,serif" font-size="14.00">Ataque: 150</text>
<text text-anchor="middle" x="236" y="-49.8" font-family="Times New Roman,serif" font-size="14.00">Moviento: 3</text>
<text text-anchor="middle" x="236" y="-34.8" font-family="Times New Roman,serif" font-size="14.00">A. Ataque:6</text>
</g>
<!-- nodo6&#45;&gt;nodo10 -->
<g id="edge10" class="edge"><title>nodo6&#45;&gt;nodo10</title>
<path fill="none" stroke="black" d="M236,-218.273C236,-209.609 236,-200.783 236,-192.027"/>
<polygon fill="black" stroke="black" points="239.5,-191.795 236,-181.795 232.5,-191.795 239.5,-191.795"/>
</g>
</g>
</svg>
