<?xml version="1.0" encoding="UTF-8" standalone="no"?>
<!DOCTYPE svg PUBLIC "-//W3C//DTD SVG 1.1//EN"
 "http://www.w3.org/Graphics/SVG/1.1/DTD/svg11.dtd">
<!-- Generated by graphviz version 2.28.0 (20110507.0327)
 -->
<!-- Title: G Pages: 1 -->
<svg width="342pt" height="1498pt"
 viewBox="0.00 0.00 342.00 1498.00" xmlns="http://www.w3.org/2000/svg" xmlns:xlink="http://www.w3.org/1999/xlink">
<g id="graph1" class="graph" transform="scale(1 1) rotate(0) translate(4 1494)">
<title>G</title>
<polygon fill="white" stroke="white" points="-4,5 -4,-1494 339,-1494 339,5 -4,5"/>
<!-- nodo1 -->
<g id="node1" class="node"><title>nodo1</title>
<ellipse fill="none" stroke="black" cx="153" cy="-1399" rx="76.0518" ry="90.5193"/>
<text text-anchor="middle" x="153" y="-1447.8" font-family="Times New Roman,serif" font-size="14.00">ID: 1 </text>
<text text-anchor="middle" x="153" y="-1432.8" font-family="Times New Roman,serif" font-size="14.00">Tipo: infanteria &#160;</text>
<text text-anchor="middle" x="153" y="-1417.8" font-family="Times New Roman,serif" font-size="14.00">PosX: 14 </text>
<text text-anchor="middle" x="153" y="-1402.8" font-family="Times New Roman,serif" font-size="14.00">PosY: 1</text>
<text text-anchor="middle" x="153" y="-1387.8" font-family="Times New Roman,serif" font-size="14.00">Vida: 50</text>
<text text-anchor="middle" x="153" y="-1372.8" font-family="Times New Roman,serif" font-size="14.00">Ataque: 30</text>
<text text-anchor="middle" x="153" y="-1357.8" font-family="Times New Roman,serif" font-size="14.00">Moviento: 2</text>
<text text-anchor="middle" x="153" y="-1342.8" font-family="Times New Roman,serif" font-size="14.00">A. Ataque:1</text>
</g>
<!-- nodo2 -->
<g id="node2" class="node"><title>nodo2</title>
<ellipse fill="none" stroke="black" cx="153" cy="-1181" rx="76.0518" ry="90.5193"/>
<text text-anchor="middle" x="153" y="-1229.8" font-family="Times New Roman,serif" font-size="14.00">ID: 2 </text>
<text text-anchor="middle" x="153" y="-1214.8" font-family="Times New Roman,serif" font-size="14.00">Tipo: infanteria &#160;</text>
<text text-anchor="middle" x="153" y="-1199.8" font-family="Times New Roman,serif" font-size="14.00">PosX: 3 </text>
<text text-anchor="middle" x="153" y="-1184.8" font-family="Times New Roman,serif" font-size="14.00">PosY: 3</text>
<text text-anchor="middle" x="153" y="-1169.8" font-family="Times New Roman,serif" font-size="14.00">Vida: 50</text>
<text text-anchor="middle" x="153" y="-1154.8" font-family="Times New Roman,serif" font-size="14.00">Ataque: 30</text>
<text text-anchor="middle" x="153" y="-1139.8" font-family="Times New Roman,serif" font-size="14.00">Moviento: 2</text>
<text text-anchor="middle" x="153" y="-1124.8" font-family="Times New Roman,serif" font-size="14.00">A. Ataque:1</text>
</g>
<!-- nodo1&#45;&gt;nodo2 -->
<g id="edge2" class="edge"><title>nodo1&#45;&gt;nodo2</title>
<path fill="none" stroke="black" d="M153,-1308.27C153,-1299.61 153,-1290.78 153,-1282.03"/>
<polygon fill="black" stroke="black" points="156.5,-1281.8 153,-1271.8 149.5,-1281.8 156.5,-1281.8"/>
</g>
<!-- nodo4 -->
<g id="node3" class="node"><title>nodo4</title>
<ellipse fill="none" stroke="black" cx="153" cy="-963" rx="84.2187" ry="90.5193"/>
<text text-anchor="middle" x="153" y="-1011.8" font-family="Times New Roman,serif" font-size="14.00">ID: 4 </text>
<text text-anchor="middle" x="153" y="-996.8" font-family="Times New Roman,serif" font-size="14.00">Tipo: infanteriam &#160;</text>
<text text-anchor="middle" x="153" y="-981.8" font-family="Times New Roman,serif" font-size="14.00">PosX: 14 </text>
<text text-anchor="middle" x="153" y="-966.8" font-family="Times New Roman,serif" font-size="14.00">PosY: 2</text>
<text text-anchor="middle" x="153" y="-951.8" font-family="Times New Roman,serif" font-size="14.00">Vida: 50</text>
<text text-anchor="middle" x="153" y="-936.8" font-family="Times New Roman,serif" font-size="14.00">Ataque: 50</text>
<text text-anchor="middle" x="153" y="-921.8" font-family="Times New Roman,serif" font-size="14.00">Moviento: 2</text>
<text text-anchor="middle" x="153" y="-906.8" font-family="Times New Roman,serif" font-size="14.00">A. Ataque:3</text>
</g>
<!-- nodo2&#45;&gt;nodo4 -->
<g id="edge4" class="edge"><title>nodo2&#45;&gt;nodo4</title>
<path fill="none" stroke="black" d="M153,-1090.27C153,-1081.61 153,-1072.78 153,-1064.03"/>
<polygon fill="black" stroke="black" points="156.5,-1063.8 153,-1053.8 149.5,-1063.8 156.5,-1063.8"/>
</g>
<!-- nodo3 -->
<g id="node4" class="node"><title>nodo3</title>
<ellipse fill="none" stroke="black" cx="74" cy="-745" rx="74.3697" ry="90.5193"/>
<text text-anchor="middle" x="74" y="-793.8" font-family="Times New Roman,serif" font-size="14.00">ID: 3 </text>
<text text-anchor="middle" x="74" y="-778.8" font-family="Times New Roman,serif" font-size="14.00">Tipo: mtanque &#160;</text>
<text text-anchor="middle" x="74" y="-763.8" font-family="Times New Roman,serif" font-size="14.00">PosX: 15 </text>
<text text-anchor="middle" x="74" y="-748.8" font-family="Times New Roman,serif" font-size="14.00">PosY: 2</text>
<text text-anchor="middle" x="74" y="-733.8" font-family="Times New Roman,serif" font-size="14.00">Vida: 200</text>
<text text-anchor="middle" x="74" y="-718.8" font-family="Times New Roman,serif" font-size="14.00">Ataque: 100</text>
<text text-anchor="middle" x="74" y="-703.8" font-family="Times New Roman,serif" font-size="14.00">Moviento: 3</text>
<text text-anchor="middle" x="74" y="-688.8" font-family="Times New Roman,serif" font-size="14.00">A. Ataque:2</text>
</g>
<!-- nodo4&#45;&gt;nodo3 -->
<g id="edge6" class="edge"><title>nodo4&#45;&gt;nodo3</title>
<path fill="none" stroke="black" d="M122.457,-878.489C117.518,-864.985 112.381,-850.942 107.38,-837.266"/>
<polygon fill="black" stroke="black" points="110.664,-836.057 103.942,-827.867 104.09,-838.461 110.664,-836.057"/>
</g>
<!-- nodo8 -->
<g id="node5" class="node"><title>nodo8</title>
<ellipse fill="none" stroke="black" cx="233" cy="-745" rx="67.2629" ry="90.5193"/>
<text text-anchor="middle" x="233" y="-793.8" font-family="Times New Roman,serif" font-size="14.00">ID: 8 </text>
<text text-anchor="middle" x="233" y="-778.8" font-family="Times New Roman,serif" font-size="14.00">Tipo: tanque &#160;</text>
<text text-anchor="middle" x="233" y="-763.8" font-family="Times New Roman,serif" font-size="14.00">PosX: 1 </text>
<text text-anchor="middle" x="233" y="-748.8" font-family="Times New Roman,serif" font-size="14.00">PosY: 1</text>
<text text-anchor="middle" x="233" y="-733.8" font-family="Times New Roman,serif" font-size="14.00">Vida: 150</text>
<text text-anchor="middle" x="233" y="-718.8" font-family="Times New Roman,serif" font-size="14.00">Ataque: 80</text>
<text text-anchor="middle" x="233" y="-703.8" font-family="Times New Roman,serif" font-size="14.00">Moviento: 4</text>
<text text-anchor="middle" x="233" y="-688.8" font-family="Times New Roman,serif" font-size="14.00">A. Ataque:2</text>
</g>
<!-- nodo4&#45;&gt;nodo8 -->
<g id="edge8" class="edge"><title>nodo4&#45;&gt;nodo8</title>
<path fill="none" stroke="black" d="M183.93,-878.489C189.074,-864.599 194.43,-850.139 199.632,-836.094"/>
<polygon fill="black" stroke="black" points="203.013,-837.043 203.204,-826.45 196.449,-834.611 203.013,-837.043"/>
</g>
<!-- nodo13 -->
<g id="node6" class="node"><title>nodo13</title>
<ellipse fill="none" stroke="black" cx="233" cy="-527" rx="71.127" ry="90.5193"/>
<text text-anchor="middle" x="233" y="-575.8" font-family="Times New Roman,serif" font-size="14.00">ID: 13 </text>
<text text-anchor="middle" x="233" y="-560.8" font-family="Times New Roman,serif" font-size="14.00">Tipo: artilleria &#160;</text>
<text text-anchor="middle" x="233" y="-545.8" font-family="Times New Roman,serif" font-size="14.00">PosX: 15 </text>
<text text-anchor="middle" x="233" y="-530.8" font-family="Times New Roman,serif" font-size="14.00">PosY: 3</text>
<text text-anchor="middle" x="233" y="-515.8" font-family="Times New Roman,serif" font-size="14.00">Vida: 50</text>
<text text-anchor="middle" x="233" y="-500.8" font-family="Times New Roman,serif" font-size="14.00">Ataque: 150</text>
<text text-anchor="middle" x="233" y="-485.8" font-family="Times New Roman,serif" font-size="14.00">Moviento: 3</text>
<text text-anchor="middle" x="233" y="-470.8" font-family="Times New Roman,serif" font-size="14.00">A. Ataque:6</text>
</g>
<!-- nodo8&#45;&gt;nodo13 -->
<g id="edge10" class="edge"><title>nodo8&#45;&gt;nodo13</title>
<path fill="none" stroke="black" d="M233,-654.273C233,-645.609 233,-636.783 233,-628.027"/>
<polygon fill="black" stroke="black" points="236.5,-627.795 233,-617.795 229.5,-627.795 236.5,-627.795"/>
</g>
<!-- nodo33 -->
<g id="node7" class="node"><title>nodo33</title>
<ellipse fill="none" stroke="black" cx="233" cy="-309" rx="67.2629" ry="90.5193"/>
<text text-anchor="middle" x="233" y="-357.8" font-family="Times New Roman,serif" font-size="14.00">ID: 33 </text>
<text text-anchor="middle" x="233" y="-342.8" font-family="Times New Roman,serif" font-size="14.00">Tipo: tanque &#160;</text>
<text text-anchor="middle" x="233" y="-327.8" font-family="Times New Roman,serif" font-size="14.00">PosX: 15 </text>
<text text-anchor="middle" x="233" y="-312.8" font-family="Times New Roman,serif" font-size="14.00">PosY: 15</text>
<text text-anchor="middle" x="233" y="-297.8" font-family="Times New Roman,serif" font-size="14.00">Vida: 150</text>
<text text-anchor="middle" x="233" y="-282.8" font-family="Times New Roman,serif" font-size="14.00">Ataque: 80</text>
<text text-anchor="middle" x="233" y="-267.8" font-family="Times New Roman,serif" font-size="14.00">Moviento: 4</text>
<text text-anchor="middle" x="233" y="-252.8" font-family="Times New Roman,serif" font-size="14.00">A. Ataque:2</text>
</g>
<!-- nodo13&#45;&gt;nodo33 -->
<g id="edge12" class="edge"><title>nodo13&#45;&gt;nodo33</title>
<path fill="none" stroke="black" d="M233,-436.273C233,-427.609 233,-418.783 233,-410.027"/>
<polygon fill="black" stroke="black" points="236.5,-409.795 233,-399.795 229.5,-409.795 236.5,-409.795"/>
</g>
<!-- nodo20 -->
<g id="node8" class="node"><title>nodo20</title>
<ellipse fill="none" stroke="black" cx="233" cy="-91" rx="101.236" ry="90.5193"/>
<text text-anchor="middle" x="233" y="-139.8" font-family="Times New Roman,serif" font-size="14.00">ID: 20 </text>
<text text-anchor="middle" x="233" y="-124.8" font-family="Times New Roman,serif" font-size="14.00">Tipo: reconocimiento &#160;</text>
<text text-anchor="middle" x="233" y="-109.8" font-family="Times New Roman,serif" font-size="14.00">PosX: 15 </text>
<text text-anchor="middle" x="233" y="-94.8" font-family="Times New Roman,serif" font-size="14.00">PosY: 4</text>
<text text-anchor="middle" x="233" y="-79.8" font-family="Times New Roman,serif" font-size="14.00">Vida: 100</text>
<text text-anchor="middle" x="233" y="-64.8" font-family="Times New Roman,serif" font-size="14.00">Ataque: 50</text>
<text text-anchor="middle" x="233" y="-49.8" font-family="Times New Roman,serif" font-size="14.00">Moviento: 6</text>
<text text-anchor="middle" x="233" y="-34.8" font-family="Times New Roman,serif" font-size="14.00">A. Ataque:2</text>
</g>
<!-- nodo33&#45;&gt;nodo20 -->
<g id="edge14" class="edge"><title>nodo33&#45;&gt;nodo20</title>
<path fill="none" stroke="black" d="M233,-218.273C233,-209.609 233,-200.783 233,-192.027"/>
<polygon fill="black" stroke="black" points="236.5,-191.795 233,-181.795 229.5,-191.795 236.5,-191.795"/>
</g>
</g>
</svg>
