<?xml version="1.0" encoding="UTF-8" standalone="no"?>
<!DOCTYPE svg PUBLIC "-//W3C//DTD SVG 1.1//EN"
 "http://www.w3.org/Graphics/SVG/1.1/DTD/svg11.dtd">
<!-- Generated by graphviz version 2.28.0 (20110507.0327)
 -->
<!-- Title: G Pages: 1 -->
<svg width="472pt" height="143pt"
 viewBox="0.00 0.00 472.00 143.33" xmlns="http://www.w3.org/2000/svg" xmlns:xlink="http://www.w3.org/1999/xlink">
<g id="graph1" class="graph" transform="scale(1 1) rotate(0) translate(4 139.327)">
<title>G</title>
<polygon fill="white" stroke="white" points="-4,5 -4,-139.327 469,-139.327 469,5 -4,5"/>
<!-- c0 -->
<g id="node1" class="node"><title>c0</title>
<polygon fill="none" stroke="black" points="0.5,-75.3269 0.5,-111.327 63.5,-111.327 63.5,-75.3269 0.5,-75.3269"/>
<text text-anchor="middle" x="10.5" y="-89.6269" font-family="Times New Roman,serif" font-size="14.00"> </text>
<polyline fill="none" stroke="black" points="20.5,-75.3269 20.5,-111.327 "/>
<text text-anchor="middle" x="32" y="-89.6269" font-family="Times New Roman,serif" font-size="14.00">0</text>
<polyline fill="none" stroke="black" points="43.5,-75.3269 43.5,-111.327 "/>
<text text-anchor="middle" x="53.5" y="-89.6269" font-family="Times New Roman,serif" font-size="14.00"> </text>
</g>
<!-- c1 -->
<g id="node2" class="node"><title>c1</title>
<polygon fill="none" stroke="black" points="100.5,-99.3269 100.5,-135.327 163.5,-135.327 163.5,-99.3269 100.5,-99.3269"/>
<text text-anchor="middle" x="110.5" y="-113.627" font-family="Times New Roman,serif" font-size="14.00"> </text>
<polyline fill="none" stroke="black" points="120.5,-99.3269 120.5,-135.327 "/>
<text text-anchor="middle" x="132" y="-113.627" font-family="Times New Roman,serif" font-size="14.00">1</text>
<polyline fill="none" stroke="black" points="143.5,-99.3269 143.5,-135.327 "/>
<text text-anchor="middle" x="153.5" y="-113.627" font-family="Times New Roman,serif" font-size="14.00"> </text>
</g>
<!-- c0&#45;&gt;c1 -->
<g id="edge2" class="edge"><title>c0:next&#45;&gt;c1:n</title>
<path fill="none" stroke="black" d="M64,-93.3269C79.1734,-93.3269 80.8428,-108.27 90.3192,-114.574"/>
<polygon fill="black" stroke="black" points="89.424,-117.958 100,-117.327 91.3388,-111.225 89.424,-117.958"/>
</g>
<!-- c4 -->
<g id="node5" class="node"><title>c4</title>
<polygon fill="none" stroke="black" points="400.5,-75.3269 400.5,-111.327 463.5,-111.327 463.5,-75.3269 400.5,-75.3269"/>
<text text-anchor="middle" x="410.5" y="-89.6269" font-family="Times New Roman,serif" font-size="14.00"> </text>
<polyline fill="none" stroke="black" points="420.5,-75.3269 420.5,-111.327 "/>
<text text-anchor="middle" x="432" y="-89.6269" font-family="Times New Roman,serif" font-size="14.00">4</text>
<polyline fill="none" stroke="black" points="443.5,-75.3269 443.5,-111.327 "/>
<text text-anchor="middle" x="453.5" y="-89.6269" font-family="Times New Roman,serif" font-size="14.00"> </text>
</g>
<!-- c0&#45;&gt;c4 -->
<g id="edge20" class="edge"><title>c0:n&#45;&gt;c4:next</title>
<path fill="none" stroke="black" d="M10,-74.3269C10,-28.0769 400.234,-25.1863 449.014,-65.655"/>
<polygon fill="black" stroke="black" points="445.981,-67.4025 454,-74.3269 452.049,-63.9131 445.981,-67.4025"/>
</g>
<!-- c1&#45;&gt;c0 -->
<g id="edge4" class="edge"><title>c1:n&#45;&gt;c0:next</title>
<path fill="none" stroke="black" d="M100,-117.327C84.8266,-117.327 83.1572,-102.384 73.6808,-96.08"/>
<polygon fill="black" stroke="black" points="74.576,-92.6959 64,-93.3269 72.6612,-99.4289 74.576,-92.6959"/>
</g>
<!-- c2 -->
<g id="node3" class="node"><title>c2</title>
<polygon fill="none" stroke="black" points="200.5,-99.3269 200.5,-135.327 263.5,-135.327 263.5,-99.3269 200.5,-99.3269"/>
<text text-anchor="middle" x="210.5" y="-113.627" font-family="Times New Roman,serif" font-size="14.00"> </text>
<polyline fill="none" stroke="black" points="220.5,-99.3269 220.5,-135.327 "/>
<text text-anchor="middle" x="232" y="-113.627" font-family="Times New Roman,serif" font-size="14.00">2</text>
<polyline fill="none" stroke="black" points="243.5,-99.3269 243.5,-135.327 "/>
<text text-anchor="middle" x="253.5" y="-113.627" font-family="Times New Roman,serif" font-size="14.00"> </text>
</g>
<!-- c1&#45;&gt;c2 -->
<g id="edge6" class="edge"><title>c1:next&#45;&gt;c2:n</title>
<path fill="none" stroke="black" d="M164,-117.327C176,-117.327 181.25,-117.327 189.875,-117.327"/>
<polygon fill="black" stroke="black" points="190,-120.827 200,-117.327 190,-113.827 190,-120.827"/>
</g>
<!-- c2&#45;&gt;c1 -->
<g id="edge8" class="edge"><title>c2:n&#45;&gt;c1:next</title>
<path fill="none" stroke="black" d="M200,-117.327C188,-117.327 182.75,-117.327 174.125,-117.327"/>
<polygon fill="black" stroke="black" points="174,-113.827 164,-117.327 174,-120.827 174,-113.827"/>
</g>
<!-- c3 -->
<g id="node4" class="node"><title>c3</title>
<polygon fill="none" stroke="black" points="300.5,-99.3269 300.5,-135.327 363.5,-135.327 363.5,-99.3269 300.5,-99.3269"/>
<text text-anchor="middle" x="310.5" y="-113.627" font-family="Times New Roman,serif" font-size="14.00"> </text>
<polyline fill="none" stroke="black" points="320.5,-99.3269 320.5,-135.327 "/>
<text text-anchor="middle" x="332" y="-113.627" font-family="Times New Roman,serif" font-size="14.00">3</text>
<polyline fill="none" stroke="black" points="343.5,-99.3269 343.5,-135.327 "/>
<text text-anchor="middle" x="353.5" y="-113.627" font-family="Times New Roman,serif" font-size="14.00"> </text>
</g>
<!-- c2&#45;&gt;c3 -->
<g id="edge10" class="edge"><title>c2:next&#45;&gt;c3:n</title>
<path fill="none" stroke="black" d="M264,-117.327C276,-117.327 281.25,-117.327 289.875,-117.327"/>
<polygon fill="black" stroke="black" points="290,-120.827 300,-117.327 290,-113.827 290,-120.827"/>
</g>
<!-- c3&#45;&gt;c2 -->
<g id="edge12" class="edge"><title>c3:n&#45;&gt;c2:next</title>
<path fill="none" stroke="black" d="M300,-117.327C288,-117.327 282.75,-117.327 274.125,-117.327"/>
<polygon fill="black" stroke="black" points="274,-113.827 264,-117.327 274,-120.827 274,-113.827"/>
</g>
<!-- c3&#45;&gt;c4 -->
<g id="edge14" class="edge"><title>c3:next&#45;&gt;c4:n</title>
<path fill="none" stroke="black" d="M364,-117.327C379.173,-117.327 380.843,-102.384 390.319,-96.08"/>
<polygon fill="black" stroke="black" points="391.339,-99.4289 400,-93.3269 389.424,-92.6959 391.339,-99.4289"/>
</g>
<!-- c4&#45;&gt;c0 -->
<g id="edge18" class="edge"><title>c4:next&#45;&gt;c0:n</title>
<path fill="none" stroke="black" d="M454,-74.3269C454,20.871 40.67,24.2178 11.6077,-64.2865"/>
<polygon fill="black" stroke="black" points="8.12521,-63.8993 10,-74.3269 15.0372,-65.0061 8.12521,-63.8993"/>
</g>
<!-- c4&#45;&gt;c3 -->
<g id="edge16" class="edge"><title>c4:n&#45;&gt;c3:next</title>
<path fill="none" stroke="black" d="M400,-93.3269C384.827,-93.3269 383.157,-108.27 373.681,-114.574"/>
<polygon fill="black" stroke="black" points="372.661,-111.225 364,-117.327 374.576,-117.958 372.661,-111.225"/>
</g>
</g>
</svg>
