<?xml version="1.0" encoding="UTF-8" standalone="no"?>
<!DOCTYPE svg PUBLIC "-//W3C//DTD SVG 1.1//EN"
 "http://www.w3.org/Graphics/SVG/1.1/DTD/svg11.dtd">
<!-- Generated by graphviz version 2.28.0 (20110507.0327)
 -->
<!-- Title: matriz Pages: 1 -->
<svg width="1145pt" height="908pt"
 viewBox="0.00 0.00 1145.00 908.00" xmlns="http://www.w3.org/2000/svg" xmlns:xlink="http://www.w3.org/1999/xlink">
<g id="graph1" class="graph" transform="scale(1 1) rotate(0) translate(4 904)">
<title>matriz</title>
<polygon fill="white" stroke="white" points="-4,5 -4,-904 1142,-904 1142,5 -4,5"/>
<!-- mt -->
<g id="node1" class="node"><title>mt</title>
<polygon fill="none" stroke="black" points="54,-900 0,-900 0,-864 54,-864 54,-900"/>
<text text-anchor="middle" x="27" y="-878.3" font-family="Times New Roman,serif" font-size="14.00">matriz</text>
</g>
<!-- y4 -->
<g id="node2" class="node"><title>y4</title>
<polygon fill="none" stroke="black" points="54,-828 0,-828 0,-792 54,-792 54,-828"/>
<text text-anchor="middle" x="27" y="-806.3" font-family="Times New Roman,serif" font-size="14.00">y4</text>
</g>
<!-- mt&#45;&gt;y4 -->
<g id="edge2" class="edge"><title>mt&#45;&gt;y4</title>
<path fill="none" stroke="black" d="M27,-863.697C27,-855.983 27,-846.712 27,-838.112"/>
<polygon fill="black" stroke="black" points="30.5001,-838.104 27,-828.104 23.5001,-838.104 30.5001,-838.104"/>
</g>
<!-- x5 -->
<g id="node26" class="node"><title>x5</title>
<polygon fill="none" stroke="black" points="140,-900 86,-900 86,-864 140,-864 140,-900"/>
<text text-anchor="middle" x="113" y="-878.3" font-family="Times New Roman,serif" font-size="14.00">x5</text>
</g>
<!-- mt&#45;&gt;x5 -->
<g id="edge26" class="edge"><title>mt&#45;&gt;x5</title>
<path fill="none" stroke="black" d="M54.2109,-882C61.3084,-882 68.4059,-882 75.5033,-882"/>
<polygon fill="black" stroke="black" points="75.902,-885.5 85.9019,-882 75.9019,-878.5 75.902,-885.5"/>
</g>
<!-- y5 -->
<g id="node3" class="node"><title>y5</title>
<polygon fill="none" stroke="black" points="54,-756 0,-756 0,-720 54,-720 54,-756"/>
<text text-anchor="middle" x="27" y="-734.3" font-family="Times New Roman,serif" font-size="14.00">y5</text>
</g>
<!-- y4&#45;&gt;y5 -->
<g id="edge4" class="edge"><title>y4&#45;&gt;y5</title>
<path fill="none" stroke="black" d="M27,-791.697C27,-783.983 27,-774.712 27,-766.112"/>
<polygon fill="black" stroke="black" points="30.5001,-766.104 27,-756.104 23.5001,-766.104 30.5001,-766.104"/>
</g>
<!-- x8y4 -->
<g id="node49" class="node"><title>x8y4</title>
<polygon fill="none" stroke="black" points="443.25,-828 368.75,-828 368.75,-792 443.25,-792 443.25,-828"/>
<text text-anchor="middle" x="406" y="-806.3" font-family="Times New Roman,serif" font-size="14.00">x:8y:4agua</text>
</g>
<!-- y4&#45;&gt;x8y4 -->
<g id="edge181" class="edge"><title>y4&#45;&gt;x8y4</title>
<path fill="none" stroke="black" d="M54.0186,-810C155.478,-810 256.938,-810 358.397,-810"/>
<polygon fill="black" stroke="black" points="358.533,-813.5 368.533,-810 358.533,-806.5 358.533,-813.5"/>
</g>
<!-- y6 -->
<g id="node4" class="node"><title>y6</title>
<polygon fill="none" stroke="black" points="54,-684 0,-684 0,-648 54,-648 54,-684"/>
<text text-anchor="middle" x="27" y="-662.3" font-family="Times New Roman,serif" font-size="14.00">y6</text>
</g>
<!-- y5&#45;&gt;y6 -->
<g id="edge6" class="edge"><title>y5&#45;&gt;y6</title>
<path fill="none" stroke="black" d="M27,-719.697C27,-711.983 27,-702.712 27,-694.112"/>
<polygon fill="black" stroke="black" points="30.5001,-694.104 27,-684.104 23.5001,-694.104 30.5001,-694.104"/>
</g>
<!-- x7y5 -->
<g id="node57" class="node"><title>x7y5</title>
<polygon fill="none" stroke="black" points="350.25,-756 275.75,-756 275.75,-720 350.25,-720 350.25,-756"/>
<text text-anchor="middle" x="313" y="-734.3" font-family="Times New Roman,serif" font-size="14.00">x:7y:5agua</text>
</g>
<!-- y5&#45;&gt;x7y5 -->
<g id="edge183" class="edge"><title>y5&#45;&gt;x7y5</title>
<path fill="none" stroke="black" d="M54.0918,-738C124.46,-738 194.829,-738 265.197,-738"/>
<polygon fill="black" stroke="black" points="265.58,-741.5 275.58,-738 265.58,-734.5 265.58,-741.5"/>
</g>
<!-- y7 -->
<g id="node5" class="node"><title>y7</title>
<polygon fill="none" stroke="black" points="54,-612 0,-612 0,-576 54,-576 54,-612"/>
<text text-anchor="middle" x="27" y="-590.3" font-family="Times New Roman,serif" font-size="14.00">y7</text>
</g>
<!-- y6&#45;&gt;y7 -->
<g id="edge8" class="edge"><title>y6&#45;&gt;y7</title>
<path fill="none" stroke="black" d="M27,-647.697C27,-639.983 27,-630.712 27,-622.112"/>
<polygon fill="black" stroke="black" points="30.5001,-622.104 27,-612.104 23.5001,-622.104 30.5001,-622.104"/>
</g>
<!-- x7y6 -->
<g id="node59" class="node"><title>x7y6</title>
<polygon fill="none" stroke="black" points="350.25,-684 275.75,-684 275.75,-648 350.25,-648 350.25,-684"/>
<text text-anchor="middle" x="313" y="-662.3" font-family="Times New Roman,serif" font-size="14.00">x:7y:6agua</text>
</g>
<!-- y6&#45;&gt;x7y6 -->
<g id="edge185" class="edge"><title>y6&#45;&gt;x7y6</title>
<path fill="none" stroke="black" d="M54.0918,-666C124.46,-666 194.829,-666 265.197,-666"/>
<polygon fill="black" stroke="black" points="265.58,-669.5 275.58,-666 265.58,-662.5 265.58,-669.5"/>
</g>
<!-- y8 -->
<g id="node6" class="node"><title>y8</title>
<polygon fill="none" stroke="black" points="54,-540 0,-540 0,-504 54,-504 54,-540"/>
<text text-anchor="middle" x="27" y="-518.3" font-family="Times New Roman,serif" font-size="14.00">y8</text>
</g>
<!-- y7&#45;&gt;y8 -->
<g id="edge10" class="edge"><title>y7&#45;&gt;y8</title>
<path fill="none" stroke="black" d="M27,-575.697C27,-567.983 27,-558.712 27,-550.112"/>
<polygon fill="black" stroke="black" points="30.5001,-550.104 27,-540.104 23.5001,-550.104 30.5001,-550.104"/>
</g>
<!-- x7y7 -->
<g id="node60" class="node"><title>x7y7</title>
<polygon fill="none" stroke="black" points="350.25,-612 275.75,-612 275.75,-576 350.25,-576 350.25,-612"/>
<text text-anchor="middle" x="313" y="-590.3" font-family="Times New Roman,serif" font-size="14.00">x:7y:7agua</text>
</g>
<!-- y7&#45;&gt;x7y7 -->
<g id="edge187" class="edge"><title>y7&#45;&gt;x7y7</title>
<path fill="none" stroke="black" d="M54.0918,-594C124.46,-594 194.829,-594 265.197,-594"/>
<polygon fill="black" stroke="black" points="265.58,-597.5 275.58,-594 265.58,-590.5 265.58,-597.5"/>
</g>
<!-- y9 -->
<g id="node7" class="node"><title>y9</title>
<polygon fill="none" stroke="black" points="54,-468 0,-468 0,-432 54,-432 54,-468"/>
<text text-anchor="middle" x="27" y="-446.3" font-family="Times New Roman,serif" font-size="14.00">y9</text>
</g>
<!-- y8&#45;&gt;y9 -->
<g id="edge12" class="edge"><title>y8&#45;&gt;y9</title>
<path fill="none" stroke="black" d="M27,-503.697C27,-495.983 27,-486.712 27,-478.112"/>
<polygon fill="black" stroke="black" points="30.5001,-478.104 27,-468.104 23.5001,-478.104 30.5001,-478.104"/>
</g>
<!-- x7y8 -->
<g id="node62" class="node"><title>x7y8</title>
<polygon fill="none" stroke="black" points="350.25,-540 275.75,-540 275.75,-504 350.25,-504 350.25,-540"/>
<text text-anchor="middle" x="313" y="-518.3" font-family="Times New Roman,serif" font-size="14.00">x:7y:8agua</text>
</g>
<!-- y8&#45;&gt;x7y8 -->
<g id="edge189" class="edge"><title>y8&#45;&gt;x7y8</title>
<path fill="none" stroke="black" d="M54.0918,-522C124.46,-522 194.829,-522 265.197,-522"/>
<polygon fill="black" stroke="black" points="265.58,-525.5 275.58,-522 265.58,-518.5 265.58,-525.5"/>
</g>
<!-- y10 -->
<g id="node8" class="node"><title>y10</title>
<polygon fill="none" stroke="black" points="54,-396 0,-396 0,-360 54,-360 54,-396"/>
<text text-anchor="middle" x="27" y="-374.3" font-family="Times New Roman,serif" font-size="14.00">y10</text>
</g>
<!-- y9&#45;&gt;y10 -->
<g id="edge14" class="edge"><title>y9&#45;&gt;y10</title>
<path fill="none" stroke="black" d="M27,-431.697C27,-423.983 27,-414.712 27,-406.112"/>
<polygon fill="black" stroke="black" points="30.5001,-406.104 27,-396.104 23.5001,-406.104 30.5001,-406.104"/>
</g>
<!-- x7y9 -->
<g id="node63" class="node"><title>x7y9</title>
<polygon fill="none" stroke="black" points="350.25,-468 275.75,-468 275.75,-432 350.25,-432 350.25,-468"/>
<text text-anchor="middle" x="313" y="-446.3" font-family="Times New Roman,serif" font-size="14.00">x:7y:9agua</text>
</g>
<!-- y9&#45;&gt;x7y9 -->
<g id="edge191" class="edge"><title>y9&#45;&gt;x7y9</title>
<path fill="none" stroke="black" d="M54.0918,-450C124.46,-450 194.829,-450 265.197,-450"/>
<polygon fill="black" stroke="black" points="265.58,-453.5 275.58,-450 265.58,-446.5 265.58,-453.5"/>
</g>
<!-- y11 -->
<g id="node9" class="node"><title>y11</title>
<polygon fill="none" stroke="black" points="54,-324 0,-324 0,-288 54,-288 54,-324"/>
<text text-anchor="middle" x="27" y="-302.3" font-family="Times New Roman,serif" font-size="14.00">y11</text>
</g>
<!-- y10&#45;&gt;y11 -->
<g id="edge16" class="edge"><title>y10&#45;&gt;y11</title>
<path fill="none" stroke="black" d="M27,-359.697C27,-351.983 27,-342.712 27,-334.112"/>
<polygon fill="black" stroke="black" points="30.5001,-334.104 27,-324.104 23.5001,-334.104 30.5001,-334.104"/>
</g>
<!-- x7y10 -->
<g id="node64" class="node"><title>x7y10</title>
<polygon fill="none" stroke="black" points="354,-396 272,-396 272,-360 354,-360 354,-396"/>
<text text-anchor="middle" x="313" y="-374.3" font-family="Times New Roman,serif" font-size="14.00">x:7y:10agua</text>
</g>
<!-- y10&#45;&gt;x7y10 -->
<g id="edge193" class="edge"><title>y10&#45;&gt;x7y10</title>
<path fill="none" stroke="black" d="M54.0918,-378C123.255,-378 192.419,-378 261.583,-378"/>
<polygon fill="black" stroke="black" points="261.787,-381.5 271.787,-378 261.787,-374.5 261.787,-381.5"/>
</g>
<!-- y12 -->
<g id="node10" class="node"><title>y12</title>
<polygon fill="none" stroke="black" points="54,-252 0,-252 0,-216 54,-216 54,-252"/>
<text text-anchor="middle" x="27" y="-230.3" font-family="Times New Roman,serif" font-size="14.00">y12</text>
</g>
<!-- y11&#45;&gt;y12 -->
<g id="edge18" class="edge"><title>y11&#45;&gt;y12</title>
<path fill="none" stroke="black" d="M27,-287.697C27,-279.983 27,-270.712 27,-262.112"/>
<polygon fill="black" stroke="black" points="30.5001,-262.104 27,-252.104 23.5001,-262.104 30.5001,-262.104"/>
</g>
<!-- x5y11 -->
<g id="node66" class="node"><title>x5y11</title>
<polygon fill="none" stroke="black" points="154,-324 72,-324 72,-288 154,-288 154,-324"/>
<text text-anchor="middle" x="113" y="-302.3" font-family="Times New Roman,serif" font-size="14.00">x:5y:11agua</text>
</g>
<!-- y11&#45;&gt;x5y11 -->
<g id="edge195" class="edge"><title>y11&#45;&gt;x5y11</title>
<path fill="none" stroke="black" d="M54.2109,-306C56.6653,-306 59.1196,-306 61.5739,-306"/>
<polygon fill="black" stroke="black" points="61.664,-309.5 71.6639,-306 61.6639,-302.5 61.664,-309.5"/>
</g>
<!-- y13 -->
<g id="node11" class="node"><title>y13</title>
<polygon fill="none" stroke="black" points="54,-180 0,-180 0,-144 54,-144 54,-180"/>
<text text-anchor="middle" x="27" y="-158.3" font-family="Times New Roman,serif" font-size="14.00">y13</text>
</g>
<!-- y12&#45;&gt;y13 -->
<g id="edge20" class="edge"><title>y12&#45;&gt;y13</title>
<path fill="none" stroke="black" d="M27,-215.697C27,-207.983 27,-198.712 27,-190.112"/>
<polygon fill="black" stroke="black" points="30.5001,-190.104 27,-180.104 23.5001,-190.104 30.5001,-190.104"/>
</g>
<!-- x5y12 -->
<g id="node70" class="node"><title>x5y12</title>
<polygon fill="none" stroke="black" points="154,-252 72,-252 72,-216 154,-216 154,-252"/>
<text text-anchor="middle" x="113" y="-230.3" font-family="Times New Roman,serif" font-size="14.00">x:5y:12agua</text>
</g>
<!-- y12&#45;&gt;x5y12 -->
<g id="edge197" class="edge"><title>y12&#45;&gt;x5y12</title>
<path fill="none" stroke="black" d="M54.2109,-234C56.6653,-234 59.1196,-234 61.5739,-234"/>
<polygon fill="black" stroke="black" points="61.664,-237.5 71.6639,-234 61.6639,-230.5 61.664,-237.5"/>
</g>
<!-- y14 -->
<g id="node12" class="node"><title>y14</title>
<polygon fill="none" stroke="black" points="54,-108 0,-108 0,-72 54,-72 54,-108"/>
<text text-anchor="middle" x="27" y="-86.3" font-family="Times New Roman,serif" font-size="14.00">y14</text>
</g>
<!-- y13&#45;&gt;y14 -->
<g id="edge22" class="edge"><title>y13&#45;&gt;y14</title>
<path fill="none" stroke="black" d="M27,-143.697C27,-135.983 27,-126.712 27,-118.112"/>
<polygon fill="black" stroke="black" points="30.5001,-118.104 27,-108.104 23.5001,-118.104 30.5001,-118.104"/>
</g>
<!-- x5y13 -->
<g id="node72" class="node"><title>x5y13</title>
<polygon fill="none" stroke="black" points="154,-180 72,-180 72,-144 154,-144 154,-180"/>
<text text-anchor="middle" x="113" y="-158.3" font-family="Times New Roman,serif" font-size="14.00">x:5y:13agua</text>
</g>
<!-- y13&#45;&gt;x5y13 -->
<g id="edge199" class="edge"><title>y13&#45;&gt;x5y13</title>
<path fill="none" stroke="black" d="M54.2109,-162C56.6653,-162 59.1196,-162 61.5739,-162"/>
<polygon fill="black" stroke="black" points="61.664,-165.5 71.6639,-162 61.6639,-158.5 61.664,-165.5"/>
</g>
<!-- y15 -->
<g id="node13" class="node"><title>y15</title>
<polygon fill="none" stroke="black" points="54,-36 0,-36 0,-0 54,-0 54,-36"/>
<text text-anchor="middle" x="27" y="-14.3" font-family="Times New Roman,serif" font-size="14.00">y15</text>
</g>
<!-- y14&#45;&gt;y15 -->
<g id="edge24" class="edge"><title>y14&#45;&gt;y15</title>
<path fill="none" stroke="black" d="M27,-71.6966C27,-63.9827 27,-54.7125 27,-46.1124"/>
<polygon fill="black" stroke="black" points="30.5001,-46.1043 27,-36.1043 23.5001,-46.1044 30.5001,-46.1043"/>
</g>
<!-- x5y14 -->
<g id="node74" class="node"><title>x5y14</title>
<polygon fill="none" stroke="black" points="154,-108 72,-108 72,-72 154,-72 154,-108"/>
<text text-anchor="middle" x="113" y="-86.3" font-family="Times New Roman,serif" font-size="14.00">x:5y:14agua</text>
</g>
<!-- y14&#45;&gt;x5y14 -->
<g id="edge201" class="edge"><title>y14&#45;&gt;x5y14</title>
<path fill="none" stroke="black" d="M54.2109,-90C56.6653,-90 59.1196,-90 61.5739,-90"/>
<polygon fill="black" stroke="black" points="61.664,-93.5001 71.6639,-90 61.6639,-86.5001 61.664,-93.5001"/>
</g>
<!-- x5y15 -->
<g id="node75" class="node"><title>x5y15</title>
<polygon fill="none" stroke="black" points="154,-36 72,-36 72,-0 154,-0 154,-36"/>
<text text-anchor="middle" x="113" y="-14.3" font-family="Times New Roman,serif" font-size="14.00">x:5y:15agua</text>
</g>
<!-- y15&#45;&gt;x5y15 -->
<g id="edge203" class="edge"><title>y15&#45;&gt;x5y15</title>
<path fill="none" stroke="black" d="M54.2109,-18C56.6653,-18 59.1196,-18 61.5739,-18"/>
<polygon fill="black" stroke="black" points="61.664,-21.5001 71.6639,-18 61.6639,-14.5001 61.664,-21.5001"/>
</g>
<!-- x6 -->
<g id="node27" class="node"><title>x6</title>
<polygon fill="none" stroke="black" points="240,-900 186,-900 186,-864 240,-864 240,-900"/>
<text text-anchor="middle" x="213" y="-878.3" font-family="Times New Roman,serif" font-size="14.00">x6</text>
</g>
<!-- x5&#45;&gt;x6 -->
<g id="edge28" class="edge"><title>x5&#45;&gt;x6</title>
<path fill="none" stroke="black" d="M140.344,-882C152.051,-882 163.758,-882 175.466,-882"/>
<polygon fill="black" stroke="black" points="175.754,-885.5 185.754,-882 175.754,-878.5 175.754,-885.5"/>
</g>
<!-- x5&#45;&gt;x5y11 -->
<g id="edge205" class="edge"><title>x5&#45;&gt;x5y11</title>
<path fill="none" stroke="black" d="M113,-863.951C113,-837.292 113,-784.115 113,-739 113,-739 113,-739 113,-449 113,-408.996 113,-362.653 113,-334.08"/>
<polygon fill="black" stroke="black" points="116.5,-334.049 113,-324.049 109.5,-334.049 116.5,-334.049"/>
</g>
<!-- x7 -->
<g id="node28" class="node"><title>x7</title>
<polygon fill="none" stroke="black" points="340,-900 286,-900 286,-864 340,-864 340,-900"/>
<text text-anchor="middle" x="313" y="-878.3" font-family="Times New Roman,serif" font-size="14.00">x7</text>
</g>
<!-- x6&#45;&gt;x7 -->
<g id="edge30" class="edge"><title>x6&#45;&gt;x7</title>
<path fill="none" stroke="black" d="M240.344,-882C252.051,-882 263.758,-882 275.466,-882"/>
<polygon fill="black" stroke="black" points="275.754,-885.5 285.754,-882 275.754,-878.5 275.754,-885.5"/>
</g>
<!-- x6y11 -->
<g id="node67" class="node"><title>x6y11</title>
<polygon fill="none" stroke="black" points="254,-324 172,-324 172,-288 254,-288 254,-324"/>
<text text-anchor="middle" x="213" y="-302.3" font-family="Times New Roman,serif" font-size="14.00">x:6y:11agua</text>
</g>
<!-- x6&#45;&gt;x6y11 -->
<g id="edge207" class="edge"><title>x6&#45;&gt;x6y11</title>
<path fill="none" stroke="black" d="M213,-863.951C213,-837.292 213,-784.115 213,-739 213,-739 213,-739 213,-449 213,-408.996 213,-362.653 213,-334.08"/>
<polygon fill="black" stroke="black" points="216.5,-334.049 213,-324.049 209.5,-334.049 216.5,-334.049"/>
</g>
<!-- x8 -->
<g id="node29" class="node"><title>x8</title>
<polygon fill="none" stroke="black" points="433,-900 379,-900 379,-864 433,-864 433,-900"/>
<text text-anchor="middle" x="406" y="-878.3" font-family="Times New Roman,serif" font-size="14.00">x8</text>
</g>
<!-- x7&#45;&gt;x8 -->
<g id="edge32" class="edge"><title>x7&#45;&gt;x8</title>
<path fill="none" stroke="black" d="M340.246,-882C349.677,-882 359.109,-882 368.54,-882"/>
<polygon fill="black" stroke="black" points="368.774,-885.5 378.774,-882 368.774,-878.5 368.774,-885.5"/>
</g>
<!-- x7&#45;&gt;x7y5 -->
<g id="edge209" class="edge"><title>x7&#45;&gt;x7y5</title>
<path fill="none" stroke="black" d="M313,-863.871C313,-839.67 313,-795.211 313,-766.393"/>
<polygon fill="black" stroke="black" points="316.5,-766.189 313,-756.189 309.5,-766.189 316.5,-766.189"/>
</g>
<!-- x9 -->
<g id="node30" class="node"><title>x9</title>
<polygon fill="none" stroke="black" points="526,-900 472,-900 472,-864 526,-864 526,-900"/>
<text text-anchor="middle" x="499" y="-878.3" font-family="Times New Roman,serif" font-size="14.00">x9</text>
</g>
<!-- x8&#45;&gt;x9 -->
<g id="edge34" class="edge"><title>x8&#45;&gt;x9</title>
<path fill="none" stroke="black" d="M433.246,-882C442.677,-882 452.109,-882 461.54,-882"/>
<polygon fill="black" stroke="black" points="461.774,-885.5 471.774,-882 461.774,-878.5 461.774,-885.5"/>
</g>
<!-- x8&#45;&gt;x8y4 -->
<g id="edge211" class="edge"><title>x8&#45;&gt;x8y4</title>
<path fill="none" stroke="black" d="M406,-863.697C406,-855.983 406,-846.712 406,-838.112"/>
<polygon fill="black" stroke="black" points="409.5,-838.104 406,-828.104 402.5,-838.104 409.5,-838.104"/>
</g>
<!-- x10 -->
<g id="node31" class="node"><title>x10</title>
<polygon fill="none" stroke="black" points="623,-900 569,-900 569,-864 623,-864 623,-900"/>
<text text-anchor="middle" x="596" y="-878.3" font-family="Times New Roman,serif" font-size="14.00">x10</text>
</g>
<!-- x9&#45;&gt;x10 -->
<g id="edge36" class="edge"><title>x9&#45;&gt;x10</title>
<path fill="none" stroke="black" d="M526.281,-882C537.013,-882 547.745,-882 558.477,-882"/>
<polygon fill="black" stroke="black" points="558.766,-885.5 568.766,-882 558.766,-878.5 558.766,-885.5"/>
</g>
<!-- x9y4 -->
<g id="node50" class="node"><title>x9y4</title>
<polygon fill="none" stroke="black" points="536.25,-828 461.75,-828 461.75,-792 536.25,-792 536.25,-828"/>
<text text-anchor="middle" x="499" y="-806.3" font-family="Times New Roman,serif" font-size="14.00">x:9y:4agua</text>
</g>
<!-- x9&#45;&gt;x9y4 -->
<g id="edge213" class="edge"><title>x9&#45;&gt;x9y4</title>
<path fill="none" stroke="black" d="M499,-863.697C499,-855.983 499,-846.712 499,-838.112"/>
<polygon fill="black" stroke="black" points="502.5,-838.104 499,-828.104 495.5,-838.104 502.5,-838.104"/>
</g>
<!-- x11 -->
<g id="node32" class="node"><title>x11</title>
<polygon fill="none" stroke="black" points="723,-900 669,-900 669,-864 723,-864 723,-900"/>
<text text-anchor="middle" x="696" y="-878.3" font-family="Times New Roman,serif" font-size="14.00">x11</text>
</g>
<!-- x10&#45;&gt;x11 -->
<g id="edge38" class="edge"><title>x10&#45;&gt;x11</title>
<path fill="none" stroke="black" d="M623.344,-882C635.051,-882 646.758,-882 658.466,-882"/>
<polygon fill="black" stroke="black" points="658.754,-885.5 668.754,-882 658.754,-878.5 658.754,-885.5"/>
</g>
<!-- x10y4 -->
<g id="node51" class="node"><title>x10y4</title>
<polygon fill="none" stroke="black" points="637,-828 555,-828 555,-792 637,-792 637,-828"/>
<text text-anchor="middle" x="596" y="-806.3" font-family="Times New Roman,serif" font-size="14.00">x:10y:4agua</text>
</g>
<!-- x10&#45;&gt;x10y4 -->
<g id="edge215" class="edge"><title>x10&#45;&gt;x10y4</title>
<path fill="none" stroke="black" d="M596,-863.697C596,-855.983 596,-846.712 596,-838.112"/>
<polygon fill="black" stroke="black" points="599.5,-838.104 596,-828.104 592.5,-838.104 599.5,-838.104"/>
</g>
<!-- x12 -->
<g id="node33" class="node"><title>x12</title>
<polygon fill="none" stroke="black" points="823,-900 769,-900 769,-864 823,-864 823,-900"/>
<text text-anchor="middle" x="796" y="-878.3" font-family="Times New Roman,serif" font-size="14.00">x12</text>
</g>
<!-- x11&#45;&gt;x12 -->
<g id="edge40" class="edge"><title>x11&#45;&gt;x12</title>
<path fill="none" stroke="black" d="M723.344,-882C735.051,-882 746.758,-882 758.466,-882"/>
<polygon fill="black" stroke="black" points="758.754,-885.5 768.754,-882 758.754,-878.5 758.754,-885.5"/>
</g>
<!-- x11y4 -->
<g id="node52" class="node"><title>x11y4</title>
<polygon fill="none" stroke="black" points="737,-828 655,-828 655,-792 737,-792 737,-828"/>
<text text-anchor="middle" x="696" y="-806.3" font-family="Times New Roman,serif" font-size="14.00">x:11y:4agua</text>
</g>
<!-- x11&#45;&gt;x11y4 -->
<g id="edge217" class="edge"><title>x11&#45;&gt;x11y4</title>
<path fill="none" stroke="black" d="M696,-863.697C696,-855.983 696,-846.712 696,-838.112"/>
<polygon fill="black" stroke="black" points="699.5,-838.104 696,-828.104 692.5,-838.104 699.5,-838.104"/>
</g>
<!-- x13 -->
<g id="node34" class="node"><title>x13</title>
<polygon fill="none" stroke="black" points="923,-900 869,-900 869,-864 923,-864 923,-900"/>
<text text-anchor="middle" x="896" y="-878.3" font-family="Times New Roman,serif" font-size="14.00">x13</text>
</g>
<!-- x12&#45;&gt;x13 -->
<g id="edge42" class="edge"><title>x12&#45;&gt;x13</title>
<path fill="none" stroke="black" d="M823.344,-882C835.051,-882 846.758,-882 858.466,-882"/>
<polygon fill="black" stroke="black" points="858.754,-885.5 868.754,-882 858.754,-878.5 858.754,-885.5"/>
</g>
<!-- x12y4 -->
<g id="node53" class="node"><title>x12y4</title>
<polygon fill="none" stroke="black" points="837,-828 755,-828 755,-792 837,-792 837,-828"/>
<text text-anchor="middle" x="796" y="-806.3" font-family="Times New Roman,serif" font-size="14.00">x:12y:4agua</text>
</g>
<!-- x12&#45;&gt;x12y4 -->
<g id="edge219" class="edge"><title>x12&#45;&gt;x12y4</title>
<path fill="none" stroke="black" d="M796,-863.697C796,-855.983 796,-846.712 796,-838.112"/>
<polygon fill="black" stroke="black" points="799.5,-838.104 796,-828.104 792.5,-838.104 799.5,-838.104"/>
</g>
<!-- x14 -->
<g id="node35" class="node"><title>x14</title>
<polygon fill="none" stroke="black" points="1023,-900 969,-900 969,-864 1023,-864 1023,-900"/>
<text text-anchor="middle" x="996" y="-878.3" font-family="Times New Roman,serif" font-size="14.00">x14</text>
</g>
<!-- x13&#45;&gt;x14 -->
<g id="edge44" class="edge"><title>x13&#45;&gt;x14</title>
<path fill="none" stroke="black" d="M923.344,-882C935.051,-882 946.758,-882 958.466,-882"/>
<polygon fill="black" stroke="black" points="958.754,-885.5 968.754,-882 958.754,-878.5 958.754,-885.5"/>
</g>
<!-- x13y4 -->
<g id="node54" class="node"><title>x13y4</title>
<polygon fill="none" stroke="black" points="937,-828 855,-828 855,-792 937,-792 937,-828"/>
<text text-anchor="middle" x="896" y="-806.3" font-family="Times New Roman,serif" font-size="14.00">x:13y:4agua</text>
</g>
<!-- x13&#45;&gt;x13y4 -->
<g id="edge221" class="edge"><title>x13&#45;&gt;x13y4</title>
<path fill="none" stroke="black" d="M896,-863.697C896,-855.983 896,-846.712 896,-838.112"/>
<polygon fill="black" stroke="black" points="899.5,-838.104 896,-828.104 892.5,-838.104 899.5,-838.104"/>
</g>
<!-- x15 -->
<g id="node36" class="node"><title>x15</title>
<polygon fill="none" stroke="black" points="1123,-900 1069,-900 1069,-864 1123,-864 1123,-900"/>
<text text-anchor="middle" x="1096" y="-878.3" font-family="Times New Roman,serif" font-size="14.00">x15</text>
</g>
<!-- x14&#45;&gt;x15 -->
<g id="edge46" class="edge"><title>x14&#45;&gt;x15</title>
<path fill="none" stroke="black" d="M1023.34,-882C1035.05,-882 1046.76,-882 1058.47,-882"/>
<polygon fill="black" stroke="black" points="1058.75,-885.5 1068.75,-882 1058.75,-878.5 1058.75,-885.5"/>
</g>
<!-- x14y4 -->
<g id="node55" class="node"><title>x14y4</title>
<polygon fill="none" stroke="black" points="1037,-828 955,-828 955,-792 1037,-792 1037,-828"/>
<text text-anchor="middle" x="996" y="-806.3" font-family="Times New Roman,serif" font-size="14.00">x:14y:4agua</text>
</g>
<!-- x14&#45;&gt;x14y4 -->
<g id="edge223" class="edge"><title>x14&#45;&gt;x14y4</title>
<path fill="none" stroke="black" d="M996,-863.697C996,-855.983 996,-846.712 996,-838.112"/>
<polygon fill="black" stroke="black" points="999.5,-838.104 996,-828.104 992.5,-838.104 999.5,-838.104"/>
</g>
<!-- x15y4 -->
<g id="node56" class="node"><title>x15y4</title>
<polygon fill="none" stroke="black" points="1137,-828 1055,-828 1055,-792 1137,-792 1137,-828"/>
<text text-anchor="middle" x="1096" y="-806.3" font-family="Times New Roman,serif" font-size="14.00">x:15y:4agua</text>
</g>
<!-- x15&#45;&gt;x15y4 -->
<g id="edge225" class="edge"><title>x15&#45;&gt;x15y4</title>
<path fill="none" stroke="black" d="M1096,-863.697C1096,-855.983 1096,-846.712 1096,-838.112"/>
<polygon fill="black" stroke="black" points="1099.5,-838.104 1096,-828.104 1092.5,-838.104 1099.5,-838.104"/>
</g>
<!-- x8y4&#45;&gt;x9y4 -->
<g id="edge51" class="edge"><title>x8y4&#45;&gt;x9y4</title>
<path fill="none" stroke="black" d="M443.418,-797.015C446.078,-796.713 448.737,-796.544 451.397,-796.508"/>
<polygon fill="black" stroke="black" points="451.493,-800.017 461.656,-797.023 451.844,-793.026 451.493,-800.017"/>
</g>
<!-- x8y5 -->
<g id="node58" class="node"><title>x8y5</title>
<polygon fill="none" stroke="black" points="443.25,-756 368.75,-756 368.75,-720 443.25,-720 443.25,-756"/>
<text text-anchor="middle" x="406" y="-734.3" font-family="Times New Roman,serif" font-size="14.00">x:8y:5agua</text>
</g>
<!-- x8y4&#45;&gt;x8y5 -->
<g id="edge49" class="edge"><title>x8y4&#45;&gt;x8y5</title>
<path fill="none" stroke="black" d="M400.084,-791.697C399.289,-783.983 399.062,-774.712 399.405,-766.112"/>
<polygon fill="black" stroke="black" points="402.898,-766.324 400.105,-756.104 395.915,-765.836 402.898,-766.324"/>
</g>
<!-- x9y4&#45;&gt;x8y4 -->
<g id="edge55" class="edge"><title>x9y4&#45;&gt;x8y4</title>
<path fill="none" stroke="black" d="M461.656,-822.977C458.996,-823.281 456.336,-823.452 453.677,-823.491"/>
<polygon fill="black" stroke="black" points="453.578,-819.982 443.418,-822.985 453.233,-826.974 453.578,-819.982"/>
</g>
<!-- x9y4&#45;&gt;x10y4 -->
<g id="edge53" class="edge"><title>x9y4&#45;&gt;x10y4</title>
<path fill="none" stroke="black" d="M536.512,-797.193C539.155,-796.86 541.798,-796.646 544.442,-796.554"/>
<polygon fill="black" stroke="black" points="544.558,-800.057 554.637,-796.792 544.722,-793.059 544.558,-800.057"/>
</g>
<!-- x10y4&#45;&gt;x9y4 -->
<g id="edge61" class="edge"><title>x10y4&#45;&gt;x9y4</title>
<path fill="none" stroke="black" d="M554.637,-823.208C551.994,-823.424 549.35,-823.52 546.707,-823.496"/>
<polygon fill="black" stroke="black" points="546.725,-819.99 536.512,-822.807 546.253,-826.974 546.725,-819.99"/>
</g>
<!-- x10y4&#45;&gt;x11y4 -->
<g id="edge59" class="edge"><title>x10y4&#45;&gt;x11y4</title>
<path fill="none" stroke="black" d="M637.016,-796.936C639.637,-796.682 642.257,-796.539 644.878,-796.507"/>
<polygon fill="black" stroke="black" points="644.848,-800.009 654.987,-796.936 645.145,-793.015 644.848,-800.009"/>
</g>
<!-- x10y10 -->
<g id="node65" class="node"><title>x10y10</title>
<polygon fill="none" stroke="black" points="640.25,-396 551.75,-396 551.75,-360 640.25,-360 640.25,-396"/>
<text text-anchor="middle" x="596" y="-374.3" font-family="Times New Roman,serif" font-size="14.00">x:10y:10agua</text>
</g>
<!-- x10y4&#45;&gt;x10y10 -->
<g id="edge57" class="edge"><title>x10y4&#45;&gt;x10y10</title>
<path fill="none" stroke="black" d="M590.288,-791.951C587,-765.292 587,-712.115 587,-667 587,-667 587,-667 587,-521 587,-480.996 587,-434.653 589.292,-406.08"/>
<polygon fill="black" stroke="black" points="592.783,-406.346 590.288,-396.049 585.817,-405.655 592.783,-406.346"/>
</g>
<!-- x11y4&#45;&gt;x10y4 -->
<g id="edge65" class="edge"><title>x11y4&#45;&gt;x10y4</title>
<path fill="none" stroke="black" d="M654.987,-823.064C652.367,-823.318 649.746,-823.461 647.125,-823.493"/>
<polygon fill="black" stroke="black" points="647.155,-819.991 637.016,-823.064 646.858,-826.985 647.155,-819.991"/>
</g>
<!-- x11y4&#45;&gt;x12y4 -->
<g id="edge63" class="edge"><title>x11y4&#45;&gt;x12y4</title>
<path fill="none" stroke="black" d="M737.016,-796.936C739.637,-796.682 742.257,-796.539 744.878,-796.507"/>
<polygon fill="black" stroke="black" points="744.848,-800.009 754.987,-796.936 745.145,-793.015 744.848,-800.009"/>
</g>
<!-- x12y4&#45;&gt;x11y4 -->
<g id="edge69" class="edge"><title>x12y4&#45;&gt;x11y4</title>
<path fill="none" stroke="black" d="M754.987,-823.064C752.367,-823.318 749.746,-823.461 747.125,-823.493"/>
<polygon fill="black" stroke="black" points="747.155,-819.991 737.016,-823.064 746.858,-826.985 747.155,-819.991"/>
</g>
<!-- x12y4&#45;&gt;x13y4 -->
<g id="edge67" class="edge"><title>x12y4&#45;&gt;x13y4</title>
<path fill="none" stroke="black" d="M837.016,-796.936C839.637,-796.682 842.257,-796.539 844.878,-796.507"/>
<polygon fill="black" stroke="black" points="844.848,-800.009 854.987,-796.936 845.145,-793.015 844.848,-800.009"/>
</g>
<!-- x13y4&#45;&gt;x12y4 -->
<g id="edge73" class="edge"><title>x13y4&#45;&gt;x12y4</title>
<path fill="none" stroke="black" d="M854.987,-823.064C852.367,-823.318 849.746,-823.461 847.125,-823.493"/>
<polygon fill="black" stroke="black" points="847.155,-819.991 837.016,-823.064 846.858,-826.985 847.155,-819.991"/>
</g>
<!-- x13y4&#45;&gt;x14y4 -->
<g id="edge71" class="edge"><title>x13y4&#45;&gt;x14y4</title>
<path fill="none" stroke="black" d="M937.016,-796.936C939.637,-796.682 942.257,-796.539 944.878,-796.507"/>
<polygon fill="black" stroke="black" points="944.848,-800.009 954.987,-796.936 945.145,-793.015 944.848,-800.009"/>
</g>
<!-- x14y4&#45;&gt;x13y4 -->
<g id="edge77" class="edge"><title>x14y4&#45;&gt;x13y4</title>
<path fill="none" stroke="black" d="M954.987,-823.064C952.367,-823.318 949.746,-823.461 947.125,-823.493"/>
<polygon fill="black" stroke="black" points="947.155,-819.991 937.016,-823.064 946.858,-826.985 947.155,-819.991"/>
</g>
<!-- x14y4&#45;&gt;x15y4 -->
<g id="edge75" class="edge"><title>x14y4&#45;&gt;x15y4</title>
<path fill="none" stroke="black" d="M1037.02,-796.936C1039.64,-796.682 1042.26,-796.539 1044.88,-796.507"/>
<polygon fill="black" stroke="black" points="1044.85,-800.009 1054.99,-796.936 1045.14,-793.015 1044.85,-800.009"/>
</g>
<!-- x15y4&#45;&gt;x14y4 -->
<g id="edge79" class="edge"><title>x15y4&#45;&gt;x14y4</title>
<path fill="none" stroke="black" d="M1054.99,-823.064C1052.37,-823.318 1049.75,-823.461 1047.12,-823.493"/>
<polygon fill="black" stroke="black" points="1047.16,-819.991 1037.02,-823.064 1046.86,-826.985 1047.16,-819.991"/>
</g>
<!-- x7y5&#45;&gt;x8y5 -->
<g id="edge83" class="edge"><title>x7y5&#45;&gt;x8y5</title>
<path fill="none" stroke="black" d="M350.418,-725.015C353.078,-724.713 355.737,-724.544 358.397,-724.508"/>
<polygon fill="black" stroke="black" points="358.493,-728.017 368.656,-725.023 358.844,-721.026 358.493,-728.017"/>
</g>
<!-- x7y5&#45;&gt;x7y6 -->
<g id="edge81" class="edge"><title>x7y5&#45;&gt;x7y6</title>
<path fill="none" stroke="black" d="M307.084,-719.697C306.289,-711.983 306.062,-702.712 306.405,-694.112"/>
<polygon fill="black" stroke="black" points="309.898,-694.324 307.105,-684.104 302.915,-693.836 309.898,-694.324"/>
</g>
<!-- x8y5&#45;&gt;x8y4 -->
<g id="edge85" class="edge"><title>x8y5&#45;&gt;x8y4</title>
<path fill="none" stroke="black" d="M411.895,-756.104C412.701,-763.791 412.937,-773.054 412.604,-781.665"/>
<polygon fill="black" stroke="black" points="409.109,-781.48 411.916,-791.697 416.092,-781.96 409.109,-781.48"/>
</g>
<!-- x8y5&#45;&gt;x7y5 -->
<g id="edge89" class="edge"><title>x8y5&#45;&gt;x7y5</title>
<path fill="none" stroke="black" d="M368.656,-750.977C365.996,-751.281 363.336,-751.452 360.677,-751.491"/>
<polygon fill="black" stroke="black" points="360.578,-747.982 350.418,-750.985 360.233,-754.974 360.578,-747.982"/>
</g>
<!-- x8y7 -->
<g id="node61" class="node"><title>x8y7</title>
<polygon fill="none" stroke="black" points="443.25,-612 368.75,-612 368.75,-576 443.25,-576 443.25,-612"/>
<text text-anchor="middle" x="406" y="-590.3" font-family="Times New Roman,serif" font-size="14.00">x:8y:7agua</text>
</g>
<!-- x8y5&#45;&gt;x8y7 -->
<g id="edge87" class="edge"><title>x8y5&#45;&gt;x8y7</title>
<path fill="none" stroke="black" d="M401.416,-719.871C398.857,-695.67 398.566,-651.211 400.541,-622.393"/>
<polygon fill="black" stroke="black" points="404.049,-622.45 401.409,-612.189 397.074,-621.857 404.049,-622.45"/>
</g>
<!-- x7y6&#45;&gt;x7y5 -->
<g id="edge91" class="edge"><title>x7y6&#45;&gt;x7y5</title>
<path fill="none" stroke="black" d="M318.895,-684.104C319.701,-691.791 319.937,-701.054 319.604,-709.665"/>
<polygon fill="black" stroke="black" points="316.109,-709.48 318.916,-719.697 323.092,-709.96 316.109,-709.48"/>
</g>
<!-- x7y6&#45;&gt;x7y7 -->
<g id="edge93" class="edge"><title>x7y6&#45;&gt;x7y7</title>
<path fill="none" stroke="black" d="M307.084,-647.697C306.289,-639.983 306.062,-630.712 306.405,-622.112"/>
<polygon fill="black" stroke="black" points="309.898,-622.324 307.105,-612.104 302.915,-621.836 309.898,-622.324"/>
</g>
<!-- x7y7&#45;&gt;x7y6 -->
<g id="edge95" class="edge"><title>x7y7&#45;&gt;x7y6</title>
<path fill="none" stroke="black" d="M318.895,-612.104C319.701,-619.791 319.937,-629.054 319.604,-637.665"/>
<polygon fill="black" stroke="black" points="316.109,-637.48 318.916,-647.697 323.092,-637.96 316.109,-637.48"/>
</g>
<!-- x7y7&#45;&gt;x8y7 -->
<g id="edge99" class="edge"><title>x7y7&#45;&gt;x8y7</title>
<path fill="none" stroke="black" d="M350.418,-581.015C353.078,-580.713 355.737,-580.544 358.397,-580.508"/>
<polygon fill="black" stroke="black" points="358.493,-584.017 368.656,-581.023 358.844,-577.026 358.493,-584.017"/>
</g>
<!-- x7y7&#45;&gt;x7y8 -->
<g id="edge97" class="edge"><title>x7y7&#45;&gt;x7y8</title>
<path fill="none" stroke="black" d="M307.084,-575.697C306.289,-567.983 306.062,-558.712 306.405,-550.112"/>
<polygon fill="black" stroke="black" points="309.898,-550.324 307.105,-540.104 302.915,-549.836 309.898,-550.324"/>
</g>
<!-- x8y7&#45;&gt;x8y5 -->
<g id="edge101" class="edge"><title>x8y7&#45;&gt;x8y5</title>
<path fill="none" stroke="black" d="M410.591,-612.189C413.145,-636.424 413.433,-680.888 411.454,-709.679"/>
<polygon fill="black" stroke="black" points="407.947,-709.61 410.584,-719.871 414.922,-710.205 407.947,-709.61"/>
</g>
<!-- x8y7&#45;&gt;x7y7 -->
<g id="edge103" class="edge"><title>x8y7&#45;&gt;x7y7</title>
<path fill="none" stroke="black" d="M368.656,-606.977C365.996,-607.281 363.336,-607.452 360.677,-607.491"/>
<polygon fill="black" stroke="black" points="360.578,-603.982 350.418,-606.985 360.233,-610.974 360.578,-603.982"/>
</g>
<!-- x7y8&#45;&gt;x7y7 -->
<g id="edge105" class="edge"><title>x7y8&#45;&gt;x7y7</title>
<path fill="none" stroke="black" d="M318.895,-540.104C319.701,-547.791 319.937,-557.054 319.604,-565.665"/>
<polygon fill="black" stroke="black" points="316.109,-565.48 318.916,-575.697 323.092,-565.96 316.109,-565.48"/>
</g>
<!-- x7y8&#45;&gt;x7y9 -->
<g id="edge107" class="edge"><title>x7y8&#45;&gt;x7y9</title>
<path fill="none" stroke="black" d="M307.084,-503.697C306.289,-495.983 306.062,-486.712 306.405,-478.112"/>
<polygon fill="black" stroke="black" points="309.898,-478.324 307.105,-468.104 302.915,-477.836 309.898,-478.324"/>
</g>
<!-- x7y9&#45;&gt;x7y8 -->
<g id="edge109" class="edge"><title>x7y9&#45;&gt;x7y8</title>
<path fill="none" stroke="black" d="M318.895,-468.104C319.701,-475.791 319.937,-485.054 319.604,-493.665"/>
<polygon fill="black" stroke="black" points="316.109,-493.48 318.916,-503.697 323.092,-493.96 316.109,-493.48"/>
</g>
<!-- x7y9&#45;&gt;x7y10 -->
<g id="edge111" class="edge"><title>x7y9&#45;&gt;x7y10</title>
<path fill="none" stroke="black" d="M307.084,-431.697C306.289,-423.983 306.062,-414.712 306.405,-406.112"/>
<polygon fill="black" stroke="black" points="309.898,-406.324 307.105,-396.104 302.915,-405.836 309.898,-406.324"/>
</g>
<!-- x7y10&#45;&gt;x7y9 -->
<g id="edge113" class="edge"><title>x7y10&#45;&gt;x7y9</title>
<path fill="none" stroke="black" d="M318.895,-396.104C319.701,-403.791 319.937,-413.054 319.604,-421.665"/>
<polygon fill="black" stroke="black" points="316.109,-421.48 318.916,-431.697 323.092,-421.96 316.109,-421.48"/>
</g>
<!-- x7y10&#45;&gt;x10y10 -->
<g id="edge117" class="edge"><title>x7y10&#45;&gt;x10y10</title>
<path fill="none" stroke="black" d="M354.179,-371.286C416.645,-362.835 479.111,-362.277 541.578,-369.613"/>
<polygon fill="black" stroke="black" points="541.248,-373.098 551.603,-370.858 542.111,-366.152 541.248,-373.098"/>
</g>
<!-- x7y11 -->
<g id="node68" class="node"><title>x7y11</title>
<polygon fill="none" stroke="black" points="354,-324 272,-324 272,-288 354,-288 354,-324"/>
<text text-anchor="middle" x="313" y="-302.3" font-family="Times New Roman,serif" font-size="14.00">x:7y:11agua</text>
</g>
<!-- x7y10&#45;&gt;x7y11 -->
<g id="edge115" class="edge"><title>x7y10&#45;&gt;x7y11</title>
<path fill="none" stroke="black" d="M307.084,-359.697C306.289,-351.983 306.062,-342.712 306.405,-334.112"/>
<polygon fill="black" stroke="black" points="309.898,-334.324 307.105,-324.104 302.915,-333.836 309.898,-334.324"/>
</g>
<!-- x10y10&#45;&gt;x10y4 -->
<g id="edge119" class="edge"><title>x10y10&#45;&gt;x10y4</title>
<path fill="none" stroke="black" d="M601.712,-396.049C605,-422.708 605,-475.885 605,-521 605,-667 605,-667 605,-667 605,-707.004 605,-753.347 602.708,-781.92"/>
<polygon fill="black" stroke="black" points="599.217,-781.654 601.712,-791.951 606.183,-782.345 599.217,-781.654"/>
</g>
<!-- x10y10&#45;&gt;x7y10 -->
<g id="edge123" class="edge"><title>x10y10&#45;&gt;x7y10</title>
<path fill="none" stroke="black" d="M551.603,-385.142C489.137,-393.322 426.67,-393.609 364.204,-386.003"/>
<polygon fill="black" stroke="black" points="364.543,-382.517 354.179,-384.714 363.651,-389.46 364.543,-382.517"/>
</g>
<!-- x10y11 -->
<g id="node69" class="node"><title>x10y11</title>
<polygon fill="none" stroke="black" points="640.25,-324 551.75,-324 551.75,-288 640.25,-288 640.25,-324"/>
<text text-anchor="middle" x="596" y="-302.3" font-family="Times New Roman,serif" font-size="14.00">x:10y:11agua</text>
</g>
<!-- x10y10&#45;&gt;x10y11 -->
<g id="edge121" class="edge"><title>x10y10&#45;&gt;x10y11</title>
<path fill="none" stroke="black" d="M590.084,-359.697C589.289,-351.983 589.062,-342.712 589.405,-334.112"/>
<polygon fill="black" stroke="black" points="592.898,-334.324 590.105,-324.104 585.915,-333.836 592.898,-334.324"/>
</g>
<!-- x5y11&#45;&gt;x6y11 -->
<g id="edge127" class="edge"><title>x5y11&#45;&gt;x6y11</title>
<path fill="none" stroke="black" d="M154.016,-292.936C156.637,-292.682 159.257,-292.539 161.878,-292.507"/>
<polygon fill="black" stroke="black" points="161.848,-296.009 171.987,-292.936 162.145,-289.015 161.848,-296.009"/>
</g>
<!-- x5y11&#45;&gt;x5y12 -->
<g id="edge125" class="edge"><title>x5y11&#45;&gt;x5y12</title>
<path fill="none" stroke="black" d="M107.084,-287.697C106.289,-279.983 106.062,-270.712 106.405,-262.112"/>
<polygon fill="black" stroke="black" points="109.898,-262.324 107.105,-252.104 102.915,-261.836 109.898,-262.324"/>
</g>
<!-- x6y11&#45;&gt;x5y11 -->
<g id="edge131" class="edge"><title>x6y11&#45;&gt;x5y11</title>
<path fill="none" stroke="black" d="M171.987,-319.064C169.367,-319.318 166.746,-319.461 164.125,-319.493"/>
<polygon fill="black" stroke="black" points="164.155,-315.991 154.016,-319.064 163.858,-322.985 164.155,-315.991"/>
</g>
<!-- x6y11&#45;&gt;x7y11 -->
<g id="edge129" class="edge"><title>x6y11&#45;&gt;x7y11</title>
<path fill="none" stroke="black" d="M254.016,-292.936C256.637,-292.682 259.257,-292.539 261.878,-292.507"/>
<polygon fill="black" stroke="black" points="261.848,-296.009 271.987,-292.936 262.145,-289.015 261.848,-296.009"/>
</g>
<!-- x7y11&#45;&gt;x7y10 -->
<g id="edge133" class="edge"><title>x7y11&#45;&gt;x7y10</title>
<path fill="none" stroke="black" d="M318.895,-324.104C319.701,-331.791 319.937,-341.054 319.604,-349.665"/>
<polygon fill="black" stroke="black" points="316.109,-349.48 318.916,-359.697 323.092,-349.96 316.109,-349.48"/>
</g>
<!-- x7y11&#45;&gt;x6y11 -->
<g id="edge137" class="edge"><title>x7y11&#45;&gt;x6y11</title>
<path fill="none" stroke="black" d="M271.987,-319.064C269.367,-319.318 266.746,-319.461 264.125,-319.493"/>
<polygon fill="black" stroke="black" points="264.155,-315.991 254.016,-319.064 263.858,-322.985 264.155,-315.991"/>
</g>
<!-- x7y11&#45;&gt;x10y11 -->
<g id="edge135" class="edge"><title>x7y11&#45;&gt;x10y11</title>
<path fill="none" stroke="black" d="M354.179,-299.286C416.645,-290.835 479.111,-290.277 541.578,-297.613"/>
<polygon fill="black" stroke="black" points="541.248,-301.098 551.603,-298.858 542.111,-294.152 541.248,-301.098"/>
</g>
<!-- x10y11&#45;&gt;x10y10 -->
<g id="edge139" class="edge"><title>x10y11&#45;&gt;x10y10</title>
<path fill="none" stroke="black" d="M601.895,-324.104C602.701,-331.791 602.937,-341.054 602.604,-349.665"/>
<polygon fill="black" stroke="black" points="599.109,-349.48 601.916,-359.697 606.092,-349.96 599.109,-349.48"/>
</g>
<!-- x10y11&#45;&gt;x7y11 -->
<g id="edge143" class="edge"><title>x10y11&#45;&gt;x7y11</title>
<path fill="none" stroke="black" d="M551.603,-313.142C489.137,-321.322 426.67,-321.609 364.204,-314.003"/>
<polygon fill="black" stroke="black" points="364.543,-310.517 354.179,-312.714 363.651,-317.46 364.543,-310.517"/>
</g>
<!-- x10y12 -->
<g id="node71" class="node"><title>x10y12</title>
<polygon fill="none" stroke="black" points="640.25,-252 551.75,-252 551.75,-216 640.25,-216 640.25,-252"/>
<text text-anchor="middle" x="596" y="-230.3" font-family="Times New Roman,serif" font-size="14.00">x:10y:12agua</text>
</g>
<!-- x10y11&#45;&gt;x10y12 -->
<g id="edge141" class="edge"><title>x10y11&#45;&gt;x10y12</title>
<path fill="none" stroke="black" d="M590.084,-287.697C589.289,-279.983 589.062,-270.712 589.405,-262.112"/>
<polygon fill="black" stroke="black" points="592.898,-262.324 590.105,-252.104 585.915,-261.836 592.898,-262.324"/>
</g>
<!-- x5y12&#45;&gt;x5y11 -->
<g id="edge145" class="edge"><title>x5y12&#45;&gt;x5y11</title>
<path fill="none" stroke="black" d="M118.895,-252.104C119.701,-259.791 119.937,-269.054 119.604,-277.665"/>
<polygon fill="black" stroke="black" points="116.109,-277.48 118.916,-287.697 123.092,-277.96 116.109,-277.48"/>
</g>
<!-- x5y12&#45;&gt;x10y12 -->
<g id="edge149" class="edge"><title>x5y12&#45;&gt;x10y12</title>
<path fill="none" stroke="black" d="M154.036,-229.802C283.175,-217.817 412.313,-217.413 541.452,-228.59"/>
<polygon fill="black" stroke="black" points="541.274,-232.088 551.545,-229.487 541.894,-225.116 541.274,-232.088"/>
</g>
<!-- x5y12&#45;&gt;x5y13 -->
<g id="edge147" class="edge"><title>x5y12&#45;&gt;x5y13</title>
<path fill="none" stroke="black" d="M107.084,-215.697C106.289,-207.983 106.062,-198.712 106.405,-190.112"/>
<polygon fill="black" stroke="black" points="109.898,-190.324 107.105,-180.104 102.915,-189.836 109.898,-190.324"/>
</g>
<!-- x10y12&#45;&gt;x10y11 -->
<g id="edge151" class="edge"><title>x10y12&#45;&gt;x10y11</title>
<path fill="none" stroke="black" d="M601.895,-252.104C602.701,-259.791 602.937,-269.054 602.604,-277.665"/>
<polygon fill="black" stroke="black" points="599.109,-277.48 601.916,-287.697 606.092,-277.96 599.109,-277.48"/>
</g>
<!-- x10y12&#45;&gt;x5y12 -->
<g id="edge155" class="edge"><title>x10y12&#45;&gt;x5y12</title>
<path fill="none" stroke="black" d="M551.545,-238.513C422.406,-250.293 293.268,-250.492 164.129,-239.111"/>
<polygon fill="black" stroke="black" points="164.311,-235.613 154.036,-238.198 163.68,-242.585 164.311,-235.613"/>
</g>
<!-- x10y13 -->
<g id="node73" class="node"><title>x10y13</title>
<polygon fill="none" stroke="black" points="640.25,-180 551.75,-180 551.75,-144 640.25,-144 640.25,-180"/>
<text text-anchor="middle" x="596" y="-158.3" font-family="Times New Roman,serif" font-size="14.00">x:10y:13agua</text>
</g>
<!-- x10y12&#45;&gt;x10y13 -->
<g id="edge153" class="edge"><title>x10y12&#45;&gt;x10y13</title>
<path fill="none" stroke="black" d="M590.084,-215.697C589.289,-207.983 589.062,-198.712 589.405,-190.112"/>
<polygon fill="black" stroke="black" points="592.898,-190.324 590.105,-180.104 585.915,-189.836 592.898,-190.324"/>
</g>
<!-- x5y13&#45;&gt;x5y12 -->
<g id="edge157" class="edge"><title>x5y13&#45;&gt;x5y12</title>
<path fill="none" stroke="black" d="M118.895,-180.104C119.701,-187.791 119.937,-197.054 119.604,-205.665"/>
<polygon fill="black" stroke="black" points="116.109,-205.48 118.916,-215.697 123.092,-205.96 116.109,-205.48"/>
</g>
<!-- x5y13&#45;&gt;x10y13 -->
<g id="edge161" class="edge"><title>x5y13&#45;&gt;x10y13</title>
<path fill="none" stroke="black" d="M154.036,-157.802C283.175,-145.817 412.313,-145.413 541.452,-156.59"/>
<polygon fill="black" stroke="black" points="541.274,-160.088 551.545,-157.487 541.894,-153.116 541.274,-160.088"/>
</g>
<!-- x5y13&#45;&gt;x5y14 -->
<g id="edge159" class="edge"><title>x5y13&#45;&gt;x5y14</title>
<path fill="none" stroke="black" d="M107.084,-143.697C106.289,-135.983 106.062,-126.712 106.405,-118.112"/>
<polygon fill="black" stroke="black" points="109.898,-118.324 107.105,-108.104 102.915,-117.836 109.898,-118.324"/>
</g>
<!-- x10y13&#45;&gt;x10y12 -->
<g id="edge163" class="edge"><title>x10y13&#45;&gt;x10y12</title>
<path fill="none" stroke="black" d="M601.895,-180.104C602.701,-187.791 602.937,-197.054 602.604,-205.665"/>
<polygon fill="black" stroke="black" points="599.109,-205.48 601.916,-215.697 606.092,-205.96 599.109,-205.48"/>
</g>
<!-- x10y13&#45;&gt;x5y13 -->
<g id="edge167" class="edge"><title>x10y13&#45;&gt;x5y13</title>
<path fill="none" stroke="black" d="M551.545,-166.513C422.406,-178.293 293.268,-178.492 164.129,-167.111"/>
<polygon fill="black" stroke="black" points="164.311,-163.613 154.036,-166.198 163.68,-170.585 164.311,-163.613"/>
</g>
<!-- x10y15 -->
<g id="node76" class="node"><title>x10y15</title>
<polygon fill="none" stroke="black" points="640.25,-36 551.75,-36 551.75,-0 640.25,-0 640.25,-36"/>
<text text-anchor="middle" x="596" y="-14.3" font-family="Times New Roman,serif" font-size="14.00">x:10y:15agua</text>
</g>
<!-- x10y13&#45;&gt;x10y15 -->
<g id="edge165" class="edge"><title>x10y13&#45;&gt;x10y15</title>
<path fill="none" stroke="black" d="M591.416,-143.871C588.857,-119.67 588.566,-75.2108 590.541,-46.3932"/>
<polygon fill="black" stroke="black" points="594.049,-46.45 591.409,-36.1893 587.074,-45.8566 594.049,-46.45"/>
</g>
<!-- x5y14&#45;&gt;x5y13 -->
<g id="edge169" class="edge"><title>x5y14&#45;&gt;x5y13</title>
<path fill="none" stroke="black" d="M118.895,-108.104C119.701,-115.791 119.937,-125.054 119.604,-133.665"/>
<polygon fill="black" stroke="black" points="116.109,-133.48 118.916,-143.697 123.092,-133.96 116.109,-133.48"/>
</g>
<!-- x5y14&#45;&gt;x5y15 -->
<g id="edge171" class="edge"><title>x5y14&#45;&gt;x5y15</title>
<path fill="none" stroke="black" d="M107.084,-71.6966C106.289,-63.9827 106.062,-54.7125 106.405,-46.1124"/>
<polygon fill="black" stroke="black" points="109.898,-46.3243 107.105,-36.1043 102.915,-45.8356 109.898,-46.3243"/>
</g>
<!-- x5y15&#45;&gt;x5y14 -->
<g id="edge173" class="edge"><title>x5y15&#45;&gt;x5y14</title>
<path fill="none" stroke="black" d="M118.895,-36.1043C119.701,-43.7913 119.937,-53.0537 119.604,-61.6651"/>
<polygon fill="black" stroke="black" points="116.109,-61.4805 118.916,-71.6966 123.092,-61.9597 116.109,-61.4805"/>
</g>
<!-- x5y15&#45;&gt;x10y15 -->
<g id="edge175" class="edge"><title>x5y15&#45;&gt;x10y15</title>
<path fill="none" stroke="black" d="M154.036,-13.8019C283.175,-1.81736 412.313,-1.41345 541.452,-12.5902"/>
<polygon fill="black" stroke="black" points="541.274,-16.0881 551.545,-13.4873 541.894,-9.11559 541.274,-16.0881"/>
</g>
<!-- x10y15&#45;&gt;x10y13 -->
<g id="edge177" class="edge"><title>x10y15&#45;&gt;x10y13</title>
<path fill="none" stroke="black" d="M600.591,-36.1893C603.145,-60.4244 603.433,-104.888 601.454,-133.679"/>
<polygon fill="black" stroke="black" points="597.947,-133.61 600.584,-143.871 604.922,-134.205 597.947,-133.61"/>
</g>
<!-- x10y15&#45;&gt;x5y15 -->
<g id="edge179" class="edge"><title>x10y15&#45;&gt;x5y15</title>
<path fill="none" stroke="black" d="M551.545,-22.5127C422.406,-34.2928 293.268,-34.4923 164.129,-23.1112"/>
<polygon fill="black" stroke="black" points="164.311,-19.6134 154.036,-22.1981 163.68,-26.5849 164.311,-19.6134"/>
</g>
</g>
</svg>
